<svg width="280" height="280" viewBox="0 0 280 280" fill="none" xmlns="http://www.w3.org/2000/svg">
<g clip-path="url(#clip0_1_14573)">
<mask id="mask0_1_14573" style="mask-type:luminance" maskUnits="userSpaceOnUse" x="0" y="0" width="280" height="280">
<path d="M0 0H280V280H0V0Z" fill="white"/>
</mask>
<g mask="url(#mask0_1_14573)">
<mask id="mask1_1_14573" style="mask-type:luminance" maskUnits="userSpaceOnUse" x="0" y="17" width="280" height="246">
<path d="M0 17.4983H280V262.869H0V17.4983Z" fill="white"/>
</mask>
<g mask="url(#mask1_1_14573)">
<path d="M44.0163 73.4633C45.9781 56.4235 80.4758 -2.10345 106.348 24.1815C132.22 50.4665 38.2238 123.708 44.0163 73.4633ZM168.282 259.011C100.674 268.718 61.9136 245.945 34.8638 208.348C-17.4524 135.623 61.0158 115.528 99.9375 71.1113C139.607 25.8423 204.637 -15.5855 248.488 79.7353C278.296 144.524 264.858 245.147 168.282 259.011Z" fill="#C3E6E0"/>
<mask id="mask2_1_14573" style="mask-type:luminance" maskUnits="userSpaceOnUse" x="17" y="22" width="246" height="240">
<path d="M168.282 259.009C100.674 268.714 61.9136 245.943 34.8638 208.346C-17.4524 135.622 61.0158 115.526 99.9375 71.1078C139.607 25.8388 204.637 -15.5889 248.488 79.7318C278.296 144.52 264.856 245.145 168.282 259.009Z" fill="white"/>
</mask>
<g mask="url(#mask2_1_14573)">
<path d="M33.0174 139.977H24.0469V261.254H33.0174V139.977Z" fill="#61B274"/>
<path d="M53.9861 139.977H45.0156V261.254H53.9861V139.977ZM73.2571 139.977H64.2866V261.254H73.2571V139.977ZM94.2274 139.977H85.2569V261.254H94.2274V139.977ZM113.504 139.977H104.533V261.254H113.504V139.977ZM134.472 139.977H125.502V261.254H134.472V139.977ZM153.745 139.977H144.774V261.254H153.745V139.977ZM174.713 139.977H165.743V261.254H174.713V139.977ZM193.99 139.977H185.019V261.254H193.99V139.977ZM214.958 139.977H205.988V261.254H214.958V139.977ZM234.229 139.977H225.259V261.254H234.229V139.977ZM255.199 139.977H246.229V261.254H255.199V139.977Z" fill="#61B274"/>
<path d="M280 137.8H0V140.604H280V137.8Z" fill="#1D2331"/>
</g>
<path d="M243.745 104.029H243.376L242.31 98.1471C246.778 84.8226 246.675 70.4446 238.649 73.7748C238.406 73.8777 238.171 73.9988 237.946 74.1371L234.423 54.7751L233.609 53.3786L237.456 74.4906C233.301 77.6948 231.581 87.5666 231.245 96.1363C228.531 89.9903 224.315 83.9231 219.702 80.9061L225.358 43.3913L224.934 42.8086L219.165 80.5753L218.613 80.2463V80.2131H218.543C215.134 78.3983 211.578 78.3493 208.297 81.2141H208.264L208.089 81.4293C203.719 85.4316 206.264 91.0876 210.885 96.3411L210.721 96.7978C210.989 96.8924 211.261 96.9788 211.535 97.0568C212.953 98.5814 214.456 100.026 216.036 101.383L215.63 104.066H215.491C215.172 104.066 214.856 104.128 214.56 104.249C214.116 104.433 213.735 104.745 213.468 105.145C213.2 105.545 213.057 106.015 213.057 106.496V109.59C213.057 109.91 213.12 110.227 213.242 110.522C213.364 110.818 213.543 111.086 213.77 111.312C213.996 111.538 214.264 111.718 214.56 111.84C214.855 111.962 215.172 112.025 215.491 112.025H215.607L220.187 119.896H239.073L243.645 112.025H243.766C244.086 112.025 244.403 111.962 244.698 111.84C244.994 111.718 245.263 111.539 245.489 111.313C245.715 111.087 245.895 110.818 246.017 110.523C246.139 110.227 246.202 109.91 246.202 109.59V106.496C246.205 106.172 246.144 105.851 246.022 105.551C245.9 105.251 245.72 104.978 245.492 104.748C245.262 104.52 244.99 104.339 244.69 104.216C244.39 104.094 244.069 104.032 243.745 104.034V104.029ZM242.805 104.029H239.99C240.7 102.473 241.353 100.863 241.936 99.2303L242.805 104.029ZM216.515 101.78C217.42 102.543 218.336 103.293 219.263 104.029H216.151L216.515 101.78Z" fill="#1D2331"/>
<path d="M221.399 39.2788L212.049 100.737L212.604 100.821L221.954 39.3628L221.399 39.2788Z" fill="#312113"/>
<path d="M204.539 77.8663C216.466 66.934 232.224 95.2403 230.714 106.449H224.761C218.973 103.63 194.881 86.7108 204.539 77.8663Z" fill="#61B274"/>
<path d="M227.603 106.542C218.763 90.3771 204.517 78.2128 204.357 78.0921L204.72 77.6633C204.863 77.7841 219.21 90.0201 228.091 106.272L227.603 106.542Z" fill="#1D2331"/>
<path d="M220.604 95.4609C220.183 95.4171 210.206 94.3619 207.166 93.2296L207.364 92.7081C210.332 93.8071 220.555 94.9061 220.66 94.9061L220.604 95.4609ZM213.361 85.9356L212.845 85.7274C214.229 82.2694 214.493 76.7131 214.493 76.6519H215.043C215.059 76.9109 214.768 82.3901 213.361 85.9356Z" fill="#1D2331"/>
<path d="M225.44 88.144C229.096 94.5473 231.327 101.885 230.711 106.421C222.39 99.1603 224.11 89.3358 225.44 88.144Z" fill="black"/>
<path d="M235.105 70.2643C245.69 65.8665 242.502 92.2775 233.208 106.437H228.871C226.722 102.886 226.545 73.8098 235.105 70.2643Z" fill="#61B274"/>
<path d="M230.985 106.481L230.436 106.365C232.084 98.5268 236.615 73.2375 236.659 72.9838L237.208 73.0835C237.17 73.3355 232.651 98.6318 230.985 106.481Z" fill="#1D2331"/>
<path d="M237.109 92.8148L232.478 97.4575L232.876 97.853L237.504 93.2103L237.109 92.8148ZM229.131 83.3473L228.809 83.8058L234.076 87.5035L234.398 87.045L229.131 83.3473Z" fill="#1D2331"/>
<path d="M240.211 100.496H211.936C211.616 100.495 211.3 100.558 211.004 100.681C210.708 100.803 210.44 100.982 210.214 101.209C209.988 101.435 209.808 101.704 209.686 101.999C209.564 102.295 209.501 102.612 209.502 102.932V106.026C209.502 106.345 209.565 106.662 209.687 106.957C209.809 107.253 209.988 107.521 210.214 107.747C210.441 107.973 210.709 108.153 211.004 108.275C211.3 108.397 211.616 108.46 211.936 108.46H240.211C240.531 108.46 240.847 108.397 241.143 108.275C241.438 108.153 241.707 107.973 241.933 107.747C242.159 107.521 242.338 107.253 242.46 106.957C242.583 106.662 242.645 106.345 242.645 106.026V102.932C242.646 102.612 242.583 102.295 242.461 101.999C242.339 101.704 242.159 101.435 241.933 101.209C241.707 100.982 241.439 100.803 241.143 100.681C240.848 100.558 240.531 100.495 240.211 100.496Z" fill="white"/>
<path d="M216.629 116.331H235.517L240.144 108.367H212.002L216.629 116.331Z" fill="white"/>
<path d="M230.899 107.961H213.54V108.521H230.899V107.961ZM229.815 49.3378L229.266 49.4393L238.788 101.28L239.337 101.178L229.815 49.3378ZM250.187 261.123H17.7207V261.683H250.187V261.123Z" fill="#312113"/>
<path d="M148.968 42.2923C147.339 42.6733 145.821 43.4256 144.531 44.4903C143.299 45.6173 142.547 47.4198 143.114 48.9913C145.758 50.1393 146.868 50.1848 149.748 50.0903C161.494 49.7333 164.187 85.8183 166.238 95.1616C172.365 94.931 178.349 93.2505 183.7 90.2581C180.452 77.9573 170.647 36.0536 148.968 42.2923Z" fill="#1D2331"/>
<path d="M146.202 46.3995C145.175 46.2997 142.975 46.613 142.59 47.824C142.205 49.035 144.013 49.5442 144.788 49.9187C146.049 50.5105 147.26 51.2016 148.411 51.9855C148.778 52.2322 151.461 54.6682 151.659 54.6017C152.878 54.1835 153.374 52.6067 152.994 51.3747C152.614 50.1427 151.615 49.2205 150.586 48.44C149.3 47.4442 147.826 46.5657 146.2 46.4012L146.202 46.3995Z" fill="#FDB824"/>
<path d="M157.542 248.595C157.19 246.764 157.817 242.841 155.894 242.197C154.684 241.791 154.849 242.746 154.733 243.719C154.632 244.693 154.692 245.678 154.91 246.633C155.279 248.106 155.783 249.541 156.417 250.92C156.966 252.156 157.924 255.126 158.445 256.356C158.666 256.225 158.835 256.114 158.897 255.873C158.984 255.516 158.429 253.257 158.347 252.882L157.542 248.595Z" fill="#1D2331"/>
<path d="M155.581 244.538C155.518 243.974 155.295 243.441 154.939 243C154.646 242.755 154.3 242.582 153.929 242.494C153.557 242.41 153.17 242.413 152.8 242.504C152.015 242.646 151.271 242.962 150.623 243.428C149.976 243.894 149.44 244.498 149.057 245.198C148.397 246.494 149.129 247.88 149.321 249.221C149.815 252.654 149.033 256.149 147.123 259.044C146.735 259.548 146.417 260.102 146.178 260.692C146.063 260.986 146.027 261.305 146.076 261.617C146.124 261.929 146.254 262.223 146.453 262.468C147.167 263.21 148.399 262.836 149.339 262.418L153.148 260.715C154.138 260.359 155.031 259.779 155.759 259.021C156.704 257.862 156.776 256.24 156.743 254.746C156.67 251.315 156.28 247.898 155.581 244.538Z" fill="#1D2331"/>
<path d="M155.211 241.043L153.914 230.127C149.954 229.185 145.796 229.54 142.053 231.138L148.346 245.824L148.99 247.755C149.485 249.151 149.963 249.734 151.903 249.013C152.558 248.794 153.158 248.439 153.666 247.972C154.175 247.506 154.582 246.94 154.861 246.309C154.945 246.131 155.018 245.947 155.081 245.76C155.269 245.14 155.377 244.498 155.405 243.852C155.424 243.276 155.408 242.7 155.356 242.127L155.211 241.043Z" fill="#A9695C"/>
<path d="M149.573 163.795C148.182 154.039 147.689 137.895 136.783 133.602C131.946 131.7 126.339 134.026 123.404 138.301C128.78 174.771 131.648 207.48 144.593 241.999C148.706 241.429 152.663 240.038 156.229 237.909C156.229 225.729 156.031 213.477 154.804 201.346C153.534 188.766 151.348 176.304 149.573 163.795ZM112.356 247.688C111.773 248.472 111.325 249.349 111.031 250.282C110.596 251.736 110.302 253.228 110.153 254.739L109.131 260.456C109.245 260.47 109.36 260.461 109.47 260.43C109.579 260.394 109.681 260.338 109.768 260.264C110.027 259.999 110.697 257.773 110.823 257.416L112.291 253.306C112.918 251.547 115.447 248.49 114.127 246.962C113.298 245.994 112.944 246.918 112.356 247.688Z" fill="#1D2331"/>
<path d="M111.3 245.649C110.551 245.374 109.75 245.268 108.955 245.338C108.16 245.412 107.392 245.661 106.705 246.066C105.48 246.846 105.403 248.413 104.885 249.667C103.566 252.874 101.118 255.487 98.0035 257.01C97.4148 257.242 96.8602 257.553 96.355 257.934C96.1084 258.126 95.9175 258.379 95.802 258.669C95.6838 258.958 95.6452 259.274 95.69 259.583C95.9315 260.589 97.1845 260.89 98.2083 261.006L102.347 261.473C103.38 261.672 104.446 261.627 105.459 261.342C106.86 260.825 107.746 259.462 108.481 258.158C110.152 255.176 111.55 252.049 112.658 248.815C112.886 248.297 112.964 247.726 112.884 247.167C112.757 246.807 112.548 246.482 112.273 246.218C111.997 245.955 111.664 245.761 111.3 245.649Z" fill="#1D2331"/>
<path d="M105.775 246.248L105.351 248.238C105.066 249.688 105.182 250.435 107.22 250.799C107.896 250.937 108.592 250.936 109.266 250.796C109.94 250.654 110.579 250.374 111.14 249.975C111.307 249.856 111.467 249.728 111.618 249.59C112.096 249.153 112.515 248.656 112.866 248.111C113.181 247.63 113.459 247.127 113.701 246.605L114.119 245.616L118.545 235.552C115.613 232.731 111.855 230.924 107.821 230.396L105.775 246.248Z" fill="#A9695C"/>
<path d="M141.718 132.16C127.823 166.304 110.492 206.112 104.1 242.422C107.93 244.019 112.042 244.831 116.192 244.808C122.403 234.325 131.62 213.477 136.732 202.417C142.026 190.936 146.472 179.095 151.304 167.416C155.063 158.302 162.847 144.149 155.625 134.915C152.431 130.814 146.432 129.98 141.718 132.16Z" fill="#1D2331"/>
<path d="M116.962 34.1198L108.685 35.8015C108.685 35.8015 94.0478 63.5915 98.0221 72.9575C101.095 80.2025 126.22 91.217 126.22 91.217C131.304 87.605 140.104 83.8075 141.786 78.1025L110.682 65.6425L116.962 34.1198Z" fill="#A9695C"/>
<path d="M160.709 89.8154C160.737 86.6829 156.311 81.0216 151.364 78.5804L149.462 77.6686L143.349 75.1241L137.187 77.5146L134.312 78.8779C128.877 81.6866 124.286 91.5864 123.165 94.4214C121.108 99.6259 126.304 103.497 126.859 108.442C126.859 108.442 122.461 129.659 123.303 138.728C124.535 140.317 127.986 139.365 131.339 139.08C136.682 138.623 153.914 137.65 157.311 137.673C158.327 137.673 149.226 128.879 150.984 118.374C153.364 104.286 160.707 89.8136 160.707 89.8136L160.709 89.8154Z" fill="#FDB824"/>
<path d="M140.647 76.5084C139.388 76.1899 138.282 76.1513 137.096 75.5021C135.678 74.7321 134.474 73.6226 133.116 72.7546C130.115 70.8524 119.776 66.3723 117.632 67.2578C115.917 67.9508 113.037 72.1229 111.822 73.5194C108.959 76.8164 106.875 80.6646 105.088 84.6616C104.259 86.5253 103.548 88.8669 104.824 90.4611C105.857 91.7421 107.71 91.9118 109.353 91.9783L120.842 92.4404C123.964 92.5664 127.179 92.6819 130.126 91.6319C134.457 90.0918 137.551 86.2996 140.09 82.4688C141.112 80.9411 143.503 77.2416 140.645 76.5101L140.647 76.5084Z" fill="#FDB824"/>
<path d="M143.373 75.124L137.211 77.5145L134.336 78.8778C134.036 79.7405 133.881 80.6471 133.879 81.5605C133.841 86.436 140.624 84.364 140.624 84.364C140.624 84.364 151.348 83.4575 151.386 78.582L149.484 77.6703L143.373 75.124Z" fill="#A9695C"/>
<path d="M146.196 104.018C144.264 104.414 142.292 104.578 140.32 104.514C138.367 104.446 136.477 103.805 134.884 102.673C134.112 102.106 133.48 101.37 133.034 100.522C132.593 99.6722 132.351 98.7332 132.327 97.7761C132.33 97.7434 132.325 97.7113 132.312 97.6798C132.292 97.6326 132.282 97.6221 132.261 97.5976C132.238 97.574 132.211 97.5552 132.181 97.5423C132.151 97.5293 132.119 97.5226 132.086 97.5223C132.021 97.5223 131.958 97.5474 131.911 97.5924C131.864 97.6374 131.837 97.6988 131.834 97.7638C131.853 98.7997 132.111 99.8171 132.588 100.737C133.064 101.657 133.747 102.455 134.581 103.068C136.25 104.26 138.232 104.935 140.281 105.009L141.282 105.042C142.959 105.003 144.629 104.819 146.273 104.493C146.305 104.487 146.336 104.476 146.364 104.458C146.392 104.441 146.416 104.418 146.434 104.391C146.453 104.365 146.467 104.335 146.474 104.304C146.48 104.272 146.481 104.239 146.478 104.207C146.463 104.144 146.429 104.094 146.376 104.057C146.298 104.001 146.261 104.01 146.198 104.02L146.196 104.018Z" fill="#1D2331"/>
<path d="M135.364 58.7983C134.083 58.8421 133.094 60.2158 133.166 61.8661C133.238 63.5163 135.325 65.7633 136.606 65.7143C137.887 65.6653 137.859 63.3518 137.8 61.7016C137.74 60.0513 136.645 58.7493 135.366 58.8001L135.364 58.7983Z" fill="#A9695C"/>
<path d="M134.517 59.6015C134.451 59.5934 134.39 59.6097 134.335 59.6505C134.253 59.7118 134.248 59.7468 134.237 59.8115C134.232 59.8436 134.234 59.8764 134.242 59.9079C134.249 59.9394 134.263 59.969 134.283 59.9951C134.302 60.0211 134.327 60.0431 134.354 60.0597C134.382 60.0762 134.413 60.087 134.445 60.0915C134.751 60.1394 135.039 60.2658 135.281 60.4585C135.523 60.6511 135.711 60.9034 135.826 61.1905C135.423 61.1021 135.003 61.1251 134.612 61.257C134.557 61.2804 134.513 61.3226 134.487 61.376C134.462 61.4309 134.457 61.488 134.472 61.5475C134.494 61.6368 134.522 61.6543 134.571 61.6875C134.62 61.7208 134.68 61.7348 134.739 61.7295C135.093 61.5927 135.485 61.5927 135.838 61.7295C136.09 61.8783 136.18 62.2178 136.283 62.615C136.337 62.8519 136.41 63.0829 136.503 63.308C136.524 63.3512 136.555 63.3856 136.596 63.4113C136.657 63.4498 136.682 63.4498 136.729 63.4515C136.755 63.4572 136.781 63.4572 136.806 63.4515C136.865 63.4305 136.909 63.3944 136.941 63.343C136.988 63.266 136.981 63.231 136.971 63.1715C136.388 60.2648 135.404 59.7415 134.519 59.605L134.517 59.6015Z" fill="#1D2331"/>
<path d="M147.407 71.4141L140.724 71.1831L140.272 74.1511L139.453 79.5429L147.851 79.8404L147.561 74.3104L147.407 71.4141Z" fill="#A9695C"/>
<path d="M140.729 71.1831L140.498 72.7878C141.736 73.8758 143.288 74.5419 144.929 74.6901C145.823 74.7578 146.722 74.6281 147.561 74.3103L147.407 71.4141L140.729 71.1831ZM152.487 58.2786C152.622 53.7653 148.817 49.9871 143.987 49.8436C139.157 49.7001 135.132 53.2403 134.998 57.7553C134.863 62.2703 138.667 66.0468 143.497 66.1903C148.327 66.3338 152.352 62.7936 152.487 58.2786Z" fill="#1D2331"/>
<path d="M144.616 52.0765C139.955 51.9173 136.014 56.6493 135.82 62.6518C135.626 68.6543 139.222 73.6453 143.879 73.8203C148.536 73.9953 152.487 69.2475 152.673 63.2398C152.858 57.232 149.278 52.241 144.616 52.0765Z" fill="#A9695C"/>
<path d="M147.093 61.8275C146.582 61.8275 146.202 60.9315 146.181 61.46C146.172 61.705 146.261 61.9435 146.428 62.1233C146.51 62.2128 146.609 62.2843 146.72 62.3333C146.83 62.3848 146.95 62.4129 147.072 62.4155C147.193 62.4211 147.314 62.4014 147.427 62.3578C147.656 62.272 147.843 62.099 147.945 61.8765C147.996 61.7668 148.024 61.6476 148.027 61.5265C148.043 60.998 147.599 61.8485 147.093 61.8275ZM140.564 60.2158C140.245 60.2158 139.97 60.6218 139.953 61.1503C139.935 61.6788 140.179 62.1128 140.502 62.1233C140.826 62.1338 141.09 61.7173 141.113 61.1888C141.136 60.6603 140.887 60.2263 140.564 60.2158ZM146.235 58.8368C146.183 58.8549 146.138 58.888 146.104 58.9319C146.071 58.9758 146.051 59.0285 146.048 59.0835L145.95 59.5788C145.917 59.7433 145.994 59.8868 146.109 59.8378C146.356 59.7227 146.629 59.6739 146.901 59.696C147.173 59.7181 147.434 59.8103 147.66 59.9638C147.955 60.1781 148.19 60.4658 148.341 60.7985C148.439 61.0138 148.703 60.7373 148.643 60.48C148.558 60.0442 148.348 59.6427 148.038 59.325C147.793 59.1132 147.504 58.9591 147.192 58.8743C146.88 58.7895 146.553 58.7778 146.235 58.8368ZM141.239 58.667C140.926 58.5835 140.599 58.5733 140.282 58.6373C139.964 58.699 139.666 58.8331 139.409 59.0293C139.08 59.3221 138.844 59.7038 138.728 60.1283C138.651 60.3873 138.892 60.6778 139.008 60.4695C139.18 60.1461 139.434 59.8734 139.744 59.6785C139.982 59.5455 140.25 59.4756 140.522 59.4756C140.795 59.4756 141.063 59.5455 141.3 59.6785C141.41 59.7328 141.498 59.6068 141.477 59.4318L141.416 58.926C141.395 58.7615 141.321 58.6793 141.239 58.667ZM144.631 64.9215C144.365 64.9081 144.1 64.9554 143.855 65.0598L143.68 65.1263C143.477 65.1875 143.218 65.2085 143.131 65.0825C143.043 64.9565 143.054 64.6923 143.131 64.4508L143.68 62.0218C143.688 61.9903 143.69 61.9588 143.686 61.9273C143.675 61.8639 143.64 61.8074 143.588 61.7698C143.562 61.7497 143.532 61.737 143.5 61.733C143.435 61.7178 143.373 61.7278 143.314 61.7628C143.227 61.8153 143.218 61.852 143.204 61.915L142.655 64.344C142.587 64.5247 142.564 64.7191 142.588 64.9106C142.612 65.102 142.683 65.2848 142.793 65.443C142.875 65.5267 142.973 65.592 143.082 65.6345C143.191 65.6771 143.308 65.6959 143.425 65.6898C143.575 65.6851 143.725 65.661 143.869 65.618L144.067 65.5515C144.239 65.471 144.427 65.4314 144.617 65.436C144.648 65.4433 144.682 65.4415 144.713 65.4308C144.745 65.4222 144.774 65.4073 144.8 65.387C144.826 65.3672 144.847 65.3427 144.863 65.3135C144.888 65.2698 144.889 65.254 144.893 65.2208C144.896 65.1875 144.9 65.1455 144.89 65.1088C144.879 65.072 144.862 65.037 144.837 65.009C144.813 64.981 144.781 64.9583 144.746 64.9425C144.711 64.9274 144.672 64.9208 144.634 64.9233L144.631 64.9215Z" fill="#1D2331"/>
<path d="M142.025 68.7961C142.277 69.1648 142.615 69.4667 143.009 69.6756C143.404 69.8845 143.843 69.994 144.29 69.9948C144.742 70.0156 145.193 69.9204 145.598 69.7182C146.004 69.5161 146.351 69.2138 146.607 68.8398C146.863 68.466 147.019 68.033 147.06 67.5819C147.102 67.1307 147.028 66.6765 146.845 66.2621C146.384 67.1156 145.679 67.8125 144.82 68.2638C143.962 68.7151 142.99 68.9004 142.025 68.7961Z" fill="white"/>
<path d="M144.889 49.2031C143.676 48.7939 142.381 48.6934 141.12 48.9108C139.858 49.1292 138.671 49.6587 137.666 50.4513C136.661 51.2439 135.869 52.2747 135.362 53.4503C134.856 54.6262 134.651 55.9097 134.765 57.1848C134.865 58.6146 135.684 61.8958 137.662 59.9008C138.124 59.4283 138.414 58.8018 138.915 58.3783C139.618 57.7676 140.607 57.6468 141.464 57.2793C143.662 56.3623 144.833 54.0208 145.829 51.8596C146.093 51.2821 146.378 50.6066 146.081 50.0343C145.807 49.6129 145.379 49.3152 144.889 49.2048V49.2031Z" fill="#1D2331"/>
<path d="M144.895 48.5695C144.029 48.4583 143.152 48.6526 142.415 49.119C141.277 49.987 141.388 51.576 141.08 52.7958C140.728 54.2133 140.772 55.4068 142.217 56.3308C143.383 57.078 144.823 57.2268 146.186 57.4963C147.549 57.7658 148.995 58.2558 149.747 59.3933C150.269 60.1843 150.374 61.1678 150.754 62.0323C151.133 62.8968 152.022 63.714 152.952 63.4778C153.844 62.0285 154.344 60.3716 154.402 58.6704C154.46 56.9692 154.073 55.2823 153.281 53.7758C152.432 52.2737 151.219 51.0096 149.753 50.1C148.287 49.1904 146.616 48.6647 144.893 48.5713L144.895 48.5695Z" fill="#1D2331"/>
<path d="M154.184 59.4528C152.908 59.3163 151.738 60.5518 151.563 62.2003C151.388 63.8488 151.2 66.1518 152.474 66.2901C153.748 66.4283 155.997 64.3336 156.174 62.6903C156.351 61.0471 155.46 59.5893 154.184 59.4528Z" fill="#A9695C"/>
<path d="M154.975 60.3156C154.079 60.3873 153.062 60.8651 152.287 63.6738C152.27 63.7333 152.276 63.7911 152.302 63.8471C152.343 63.9311 152.374 63.9433 152.43 63.9661C152.461 63.9702 152.492 63.9702 152.523 63.9661C152.567 63.9672 152.609 63.9562 152.649 63.9328C152.708 63.8978 152.717 63.8786 152.738 63.8401C152.848 63.6231 152.938 63.3979 153.008 63.1646C153.139 62.7743 153.254 62.4383 153.513 62.3123C153.877 62.2015 154.269 62.2309 154.612 62.3946C154.672 62.4074 154.735 62.3974 154.787 62.3666C154.827 62.344 154.859 62.3109 154.881 62.271C154.903 62.2311 154.914 62.186 154.911 62.1405C154.909 62.0951 154.895 62.0511 154.869 62.0134C154.843 61.9758 154.808 61.946 154.766 61.9273C154.385 61.7738 153.97 61.7225 153.562 61.7786C153.698 61.5027 153.904 61.2667 154.158 61.0935C154.412 60.9203 154.707 60.8157 155.013 60.7898C155.048 60.7915 155.084 60.7855 155.116 60.7723C155.179 60.7538 155.231 60.7112 155.262 60.6539C155.293 60.5966 155.3 60.5294 155.282 60.4669C155.263 60.4045 155.221 60.352 155.163 60.321C155.106 60.29 155.039 60.283 154.976 60.3016L154.975 60.3156Z" fill="#1D2331"/>
<path d="M179.084 147.177C176.55 145.495 153.849 140.828 150.991 140.548C146.83 140.142 143.615 145.605 141.966 149.195C141.595 149.992 141.549 150.902 141.839 151.733C142.128 152.563 142.73 153.248 143.517 153.641C147.486 155.615 154.78 159.056 159.193 159.996C163.794 160.974 172.121 161.7 176.272 162.019C176.965 162.073 177.654 161.867 178.203 161.44C178.752 161.013 179.122 160.396 179.24 159.71C179.927 155.764 180.921 148.393 179.086 147.179L179.084 147.177Z" fill="#FDB824"/>
<path d="M177.308 150.778C174.198 152.778 170.824 154.334 167.284 155.4C163.271 156.609 160.203 156.571 157.9 155.274C156.131 154.278 154.85 152.527 153.718 150.997L147.887 143.054C147.867 143.027 147.843 143.005 147.815 142.987C147.773 142.961 147.755 142.959 147.724 142.954C147.692 142.949 147.659 142.951 147.628 142.958C147.596 142.965 147.566 142.979 147.54 142.998C147.514 143.017 147.489 143.04 147.474 143.068C147.458 143.096 147.444 143.126 147.439 143.159C147.433 143.192 147.435 143.225 147.442 143.257C147.449 143.288 147.465 143.318 147.484 143.344L153.322 151.288C154.482 152.871 155.795 154.662 157.659 155.685C159.023 156.421 160.556 156.788 162.105 156.751C163.912 156.708 165.704 156.407 167.425 155.855C171.011 154.774 174.428 153.198 177.577 151.172C177.605 151.155 177.629 151.132 177.649 151.104C177.679 151.062 177.68 151.046 177.686 151.015C177.691 150.982 177.691 150.949 177.687 150.917C177.681 150.884 177.668 150.853 177.649 150.826C177.63 150.8 177.607 150.778 177.579 150.761C177.537 150.735 177.521 150.733 177.49 150.729C177.458 150.726 177.425 150.726 177.393 150.735C177.362 150.743 177.334 150.759 177.308 150.778Z" fill="#1D2331"/>
<path d="M154.15 81.8458C149.285 85.7431 142.805 83.8513 143.739 89.7331C145.662 101.787 161.801 119.915 161.801 119.915L157.349 151.751L165.39 156.616C165.39 156.616 178.543 120.999 174.037 111.879C170.553 104.827 154.15 81.8458 154.15 81.8458Z" fill="#A9695C"/>
<path d="M163.77 151.613C162.121 150.189 159.081 149.459 155.783 148.925C154.864 148.776 153.782 148.16 153.138 148.293C151.49 148.635 154.874 150.876 156.206 152.052C157.538 153.228 155.403 160.671 157.053 161.215C158.703 161.76 162.72 159.408 163.567 157.483C164.671 155.02 165.672 153.263 163.77 151.613Z" fill="#A9695C"/>
<path d="M164.451 152.989C163.686 153.186 163.588 155.638 163.439 156.287L162.528 160.416C162.377 160.896 162.354 161.408 162.461 161.9C162.535 162.166 162.688 162.404 162.9 162.582C163.111 162.76 163.372 162.869 163.648 162.895C164.241 162.846 164.983 159.229 165.111 158.685C165.298 158.025 166.589 152.429 164.451 152.989Z" fill="#A9695C"/>
<path d="M163.097 153.06C162.333 153.258 162.235 155.71 162.086 156.359L161.174 160.493C161.023 160.973 161 161.485 161.108 161.977C161.181 162.242 161.333 162.48 161.544 162.658C161.755 162.835 162.015 162.945 162.289 162.972C162.887 162.923 163.629 159.306 163.757 158.762C163.932 158.097 165.252 152.499 163.097 153.06Z" fill="#A9695C"/>
<path d="M161.503 152.922C160.74 153.12 160.641 155.572 160.492 156.221L159.58 160.349C159.432 160.832 159.409 161.344 159.514 161.838C159.59 162.103 159.743 162.339 159.955 162.515C160.166 162.691 160.426 162.8 160.7 162.827C161.293 162.778 162.035 159.161 162.161 158.622C162.321 157.962 163.647 152.367 161.503 152.922Z" fill="#A9695C"/>
<path d="M159.878 152.681C159.114 152.878 159.016 155.33 158.867 155.979L157.955 160.108C157.807 160.59 157.784 161.103 157.889 161.597C157.964 161.862 158.117 162.099 158.329 162.275C158.54 162.452 158.801 162.56 159.075 162.586C159.668 162.542 160.41 158.919 160.536 158.38C160.696 157.721 161.999 152.126 159.878 152.681Z" fill="#A9695C"/>
<path d="M169.833 93.5971C166.414 90.7061 162.506 87.9848 159.44 84.7211C157.06 82.1923 154.493 80.4563 150.76 81.0776C149.263 81.3573 147.851 81.9783 146.633 82.8923C145.416 83.8063 144.426 84.9891 143.741 86.3486C143.076 87.7191 142.703 89.2124 142.645 90.7344C142.586 92.2563 142.844 93.7739 143.401 95.1913C144.346 97.6151 146.072 99.6433 147.332 101.918C149.53 105.921 150.228 110.553 151.729 114.874C152.083 116.042 152.641 117.138 153.378 118.111C153.749 118.597 154.221 118.997 154.762 119.281C155.303 119.566 155.9 119.729 156.51 119.76C158.572 119.76 160.056 117.885 161.386 116.314C163.756 113.534 166.609 111.207 169.807 109.443C171.763 108.344 173.961 107.392 175.073 105.453C176.243 103.415 175.843 100.765 174.667 98.7263C173.491 96.6876 171.63 95.1143 169.833 93.5971Z" fill="#FDB824"/>
<path d="M113.46 25.5238C112.125 24.3863 112.433 28.6406 112.312 30.5096C112.191 32.3786 106.556 34.0656 107.172 35.7911C107.788 37.5166 110.415 40.6718 112.564 40.1381C115.311 39.4573 117.401 39.1703 117.555 36.5208C117.686 34.2458 116.323 31.2218 114.641 28.1331C114.179 27.2756 113.987 25.9788 113.46 25.5221V25.5238Z" fill="#A9695C"/>
<path d="M108.684 33.9869L107.139 29.8096C106.994 29.2974 106.722 28.8302 106.348 28.4516C106.128 28.2641 105.859 28.1438 105.572 28.1051C105.284 28.0509 104.986 28.1018 104.732 28.2486C104.556 28.3869 105.772 32.6079 105.831 32.8161C106.231 33.9527 106.72 35.0558 107.294 36.1149C107.581 36.6783 107.981 37.176 108.47 37.5761C108.554 37.6512 108.653 37.708 108.76 37.7431C108.867 37.7781 108.98 37.7906 109.092 37.7797C109.204 37.7689 109.312 37.7349 109.41 37.68C109.509 37.6251 109.594 37.5504 109.662 37.4606C110.014 37.0756 109.624 36.0431 109.228 35.1576L108.684 33.9869Z" fill="#A9695C"/>
<path d="M107.22 26.0173C107.078 25.4995 106.806 25.0266 106.429 24.6436C106.212 24.4511 105.941 24.3286 105.652 24.2936C105.363 24.2586 105.071 24.3093 104.812 24.4406C104.312 24.8203 105.719 28.4533 105.911 29.0028C106.153 29.6906 108.176 35.4008 109.759 33.6911C110.309 33.0751 109.012 30.8491 108.764 30.1788L107.22 26.0173Z" fill="#A9695C"/>
<path d="M108.029 22.7081C107.887 22.1946 107.617 21.7255 107.244 21.3449C107.027 21.1524 106.755 21.0299 106.467 20.9949C106.178 20.9599 105.886 21.0106 105.627 21.1419C105.121 21.5216 106.528 25.1546 106.726 25.7041C106.972 26.3919 108.995 32.1021 110.574 30.3871C111.123 29.7764 109.827 27.5504 109.578 26.8801L108.029 22.7081Z" fill="#A9695C"/>
<path d="M110.149 21.9346C110.005 21.4248 109.734 20.9595 109.363 20.5818C109.146 20.3893 108.875 20.2668 108.586 20.2318C108.297 20.1968 108.005 20.2476 107.746 20.3788C107.245 20.7586 108.647 24.3916 108.845 24.9411C109.092 25.6288 111.115 31.3391 112.693 29.6241C113.243 29.0133 111.951 26.7873 111.704 26.1171L110.149 21.9346Z" fill="#A9695C"/>
<path d="M112.529 27.8146C111.942 26.8464 111.224 25.9642 110.396 25.1931C109.797 24.6436 108.971 24.1659 108.198 24.4459C107.955 24.5572 107.742 24.7224 107.573 24.9289C107.406 25.1365 107.289 25.3795 107.23 25.6394C107.116 26.161 107.088 26.6978 107.148 27.2284L107.407 31.9884C107.468 33.1486 107.666 34.5171 108.703 35.0281C109.528 35.4236 110.518 35.0771 111.276 34.5661C112.424 33.7909 114.305 31.7854 113.931 30.2454C113.761 29.4754 112.935 28.4919 112.529 27.8164V27.8146Z" fill="#A9695C"/>
<path d="M154.08 74.8161C153.125 74.4053 152.078 74.2521 151.045 74.3716C150.479 74.3804 149.923 74.5237 149.423 74.7899C149.174 74.9259 148.968 75.1287 148.829 75.3754C148.689 75.6222 148.621 75.903 148.632 76.1864L147.356 76.0114C147.419 76.3961 147.368 76.7906 147.21 77.1469C147.052 77.5032 146.794 77.806 146.467 78.0186C146.142 78.2334 145.761 78.3491 145.371 78.3516C144.981 78.3541 144.599 78.2433 144.271 78.0326C144.397 78.2982 144.442 78.5948 144.402 78.8859C144.361 79.177 144.236 79.4498 144.042 79.6706C143.848 79.8918 143.593 80.0513 143.31 80.1294C143.026 80.2074 142.726 80.2007 142.446 80.1099C141.958 79.9559 141.445 79.5604 140.985 79.7739C140.391 80.0714 140.484 81.1914 139.83 81.3016C139.175 81.4119 138.802 80.2954 138.143 80.4056C137.621 80.4879 137.499 81.2911 136.995 81.4556C136.491 81.6201 136.071 81.0496 136.16 80.5649C136.231 80.331 136.359 80.1182 136.531 79.9447C136.703 79.7712 136.915 79.6423 137.149 79.5691C137.605 79.3924 138.099 79.3224 138.545 79.1176C139.02 78.8857 139.412 78.512 139.666 78.0481C139.92 77.5842 140.023 77.0529 139.963 76.5276C139.518 73.1694 134.774 74.1861 132.977 75.5826C131.581 76.7748 130.49 78.2823 129.793 79.9804C129.1 81.4801 128.551 83.1181 128.738 84.7631C128.925 86.4081 130.009 88.0619 131.619 88.4189C132.669 88.5676 133.74 88.4521 134.735 88.0846C141.09 86.2979 147.547 84.4674 153.138 80.9394C154.53 80.0661 156.014 78.7799 155.886 77.1419C155.806 76.6329 155.598 76.1526 155.282 75.7458C154.966 75.3391 154.553 75.0192 154.08 74.8161Z" fill="#FDB824"/>
<path d="M149.754 81.8405C147.873 83.6521 145.62 85.0332 143.153 85.8883C140.685 86.7415 138.061 87.0485 135.463 86.7878C133.638 86.6005 132.374 86.128 131.489 85.309C130.603 84.49 130 82.754 130.801 81.599C130.839 81.5451 130.854 81.4784 130.843 81.4136C130.831 81.3487 130.795 81.2909 130.742 81.2525C130.688 81.2149 130.621 81.2001 130.556 81.2112C130.491 81.2223 130.434 81.2586 130.395 81.312C129.427 82.7085 130.021 84.6108 131.153 85.6713C132.121 86.5673 133.472 87.0783 135.412 87.2813C136.024 87.3445 136.639 87.3755 137.253 87.374C142.042 87.364 146.641 85.5029 150.088 82.18C150.133 82.1328 150.16 82.0698 150.16 82.005C150.16 81.9403 150.133 81.8755 150.088 81.8283C150.042 81.781 149.981 81.7635 149.918 81.767C149.855 81.7705 149.796 81.795 149.754 81.8405ZM168.257 102.694C165.677 103.22 163.23 104.263 161.062 105.758C158.895 107.253 157.051 109.17 155.643 111.395C155.625 111.421 155.613 111.451 155.606 111.484C155.595 111.533 155.6 111.549 155.607 111.58C155.614 111.612 155.628 111.641 155.648 111.668C155.667 111.694 155.692 111.717 155.72 111.734C155.76 111.755 155.805 111.768 155.851 111.773C155.893 111.772 155.935 111.761 155.971 111.739C156.008 111.718 156.038 111.688 156.059 111.652C157.433 109.486 159.23 107.62 161.341 106.165C163.453 104.709 165.836 103.695 168.349 103.182C168.415 103.167 168.467 103.131 168.505 103.075C168.563 102.991 168.556 102.954 168.547 102.891C168.544 102.858 168.531 102.827 168.51 102.8C168.491 102.774 168.468 102.75 168.442 102.73C168.415 102.712 168.384 102.699 168.352 102.692C168.32 102.685 168.287 102.685 168.255 102.692L168.257 102.694ZM116.88 73.5071C115.445 75.0016 114.572 76.881 113.725 78.7063L109.992 86.7528C109.966 86.8127 109.964 86.8801 109.985 86.9418C109.996 86.9724 110.013 87.0006 110.035 87.0246C110.057 87.0487 110.083 87.0681 110.113 87.0818C110.147 87.0894 110.183 87.0894 110.218 87.0818C110.266 87.0804 110.312 87.0658 110.352 87.0398C110.393 87.0138 110.424 86.9767 110.443 86.933L114.181 78.9128C115.011 77.126 115.874 75.285 117.249 73.85C117.295 73.7999 117.318 73.7415 117.319 73.675C117.321 73.5753 117.295 73.5473 117.249 73.4983C117.225 73.4738 117.197 73.4545 117.165 73.4405C117.118 73.4195 117.099 73.4213 117.065 73.4213C117.031 73.4215 116.997 73.4289 116.966 73.443C116.934 73.4572 116.906 73.4778 116.883 73.5035L116.88 73.5071Z" fill="#1D2331"/>
</g>
</g>
</g>
<defs>
<clipPath id="clip0_1_14573">
<rect width="280" height="280" fill="white"/>
</clipPath>
</defs>
</svg>
