<svg width="280" height="280" viewBox="0 0 280 280" fill="none" xmlns="http://www.w3.org/2000/svg">
<g clip-path="url(#clip0_1_14656)">
<g clip-path="url(#clip1_1_14656)">
<mask id="mask0_1_14656" style="mask-type:luminance" maskUnits="userSpaceOnUse" x="0" y="0" width="280" height="280">
<path d="M0 0H280V280H0V0Z" fill="white"/>
</mask>
<g mask="url(#mask0_1_14656)">
<mask id="mask1_1_14656" style="mask-type:luminance" maskUnits="userSpaceOnUse" x="-18" y="14" width="323" height="253">
<path d="M-17.5 14H304.5V266.726H-17.5V14Z" fill="white"/>
</mask>
<g mask="url(#mask1_1_14656)">
<path d="M91.384 14.5074C69.033 16.5112 29.651 41.8844 31.814 81.7442C33.9753 121.604 157.357 8.59594 91.384 14.5092" fill="#FFD7B3"/>
<path d="M207.487 24.9305C201.245 21.7488 194.735 19.1212 188.033 17.0783L187.725 16.9873C186.872 16.7423 186.018 16.5095 185.199 16.2873L184.578 16.1333C182.322 15.5742 180.044 15.1072 177.75 14.7333L177.216 14.6598C176.008 14.4848 174.819 14.3448 173.648 14.2398L173.079 14.1943C170.349 13.9685 167.607 13.9434 164.873 14.119H164.446C163.648 14.175 162.861 14.2509 162.084 14.3465L161.517 14.4165C158.867 14.7648 156.249 15.3195 153.685 16.0773L153.117 16.2523C151.607 16.7193 150.12 17.2565 148.661 17.8623C117.222 30.8088 98.7634 72.9278 55.2899 96.474C-15.2701 134.701 0.709138 238.378 93.2106 262.561C141.481 275.182 223.283 253.68 252.566 211.008C302.817 137.827 262.899 52.6085 207.487 24.9305Z" fill="#FFD7B3"/>
<mask id="mask2_1_14656" style="mask-type:luminance" maskUnits="userSpaceOnUse" x="11" y="14" width="265" height="253">
<path d="M93.216 262.563C141.481 275.179 223.283 253.675 252.543 211.01C302.815 137.821 262.905 52.6102 207.488 24.9322C129.212 -14.1663 119.75 61.5545 55.29 96.4705C-15.27 134.697 0.707542 238.373 93.216 262.563Z" fill="white"/>
</mask>
<g mask="url(#mask2_1_14656)">
<path d="M304.5 39.725H-17.5V40.8852H304.5V39.725ZM304.5 24.507H-17.5V25.6672H304.5V24.507Z" fill="#DBCAC2"/>
<path d="M15.5715 25.4327H14.4113V40.3025H15.5715V25.4327ZM54.9028 25.4327H53.7425V40.3025H54.9028V25.4327ZM94.234 25.4327H93.0738V40.3025H94.234V25.4327ZM133.56 25.4327H132.398V40.3025H133.56V25.4327ZM172.889 25.4327H171.729V40.3025H172.889V25.4327ZM212.221 25.4327H211.061V40.3025H212.221V25.4327ZM251.552 25.4327H250.392V40.3025H251.552V25.4327ZM304.5 54.8012H-17.5V55.9615H304.5V54.8012Z" fill="#DBCAC2"/>
<path d="M26.0925 40.5072H24.9322V55.3752H26.0925V40.5072ZM65.4185 40.5072H64.2583V55.3752H65.4185V40.5072ZM104.75 40.5072H103.588V55.3752H104.75V40.5072ZM144.081 40.5072H142.921V55.3752H144.081V40.5072ZM183.412 40.5072H182.25V55.3752H183.412V40.5072ZM222.736 40.5072H221.576V55.3752H222.736V40.5072ZM262.068 40.5072H260.907V55.3752H262.068V40.5072ZM304.5 69.874H-17.5V71.0342H304.5V69.874Z" fill="#DBCAC2"/>
<path d="M15.5715 55.5835H14.4113V70.4515H15.5715V55.5835ZM54.9028 55.5835H53.7425V70.4515H54.9028V55.5835ZM94.234 55.5835H93.0738V70.4515H94.234V55.5835ZM133.56 55.5835H132.398V70.4515H133.56V55.5835ZM172.889 55.5835H171.729V70.4515H172.889V55.5835ZM212.221 55.5835H211.061V70.4515H212.221V55.5835ZM251.552 55.5835H250.392V70.4515H251.552V55.5835ZM304.5 84.9502H-17.5V86.1105H304.5V84.9502Z" fill="#DBCAC2"/>
<path d="M26.0925 70.6597H24.9322V85.5277H26.0925V70.6597ZM65.4185 70.6597H64.2583V85.5277H65.4185V70.6597ZM104.75 70.6597H103.588V85.5277H104.75V70.6597ZM144.081 70.6597H142.921V85.5277H144.081V70.6597ZM183.412 70.6597H182.25V85.5277H183.412V70.6597ZM222.736 70.6597H221.576V85.5277H222.736V70.6597ZM262.068 70.6597H260.907V85.5277H262.068V70.6597ZM304.5 100.023H-17.5V101.185H304.5V100.023Z" fill="#DBCAC2"/>
<path d="M15.5715 85.7324H14.4113V100.602H15.5715V85.7324ZM54.9028 85.7324H53.7425V100.602H54.9028V85.7324ZM94.234 85.7324H93.0738V100.602H94.234V85.7324ZM133.56 85.7324H132.398V100.602H133.56V85.7324ZM172.889 85.7324H171.729V100.602H172.889V85.7324ZM212.221 85.7324H211.061V100.602H212.221V85.7324ZM251.552 85.7324H250.392V100.602H251.552V85.7324ZM304.5 115.097H-17.5V116.258H304.5V115.097Z" fill="#DBCAC2"/>
<path d="M26.0925 100.807H24.9322V115.675H26.0925V100.807ZM65.4185 100.807H64.2583V115.675H65.4185V100.807ZM104.75 100.807H103.588V115.675H104.75V100.807ZM144.081 100.807H142.921V115.675H144.081V100.807ZM183.412 100.807H182.25V115.675H183.412V100.807ZM222.736 100.807H221.576V115.675H222.736V100.807ZM262.068 100.807H260.907V115.675H262.068V100.807ZM304.5 130.17H-17.5V131.331H304.5V130.17Z" fill="#DBCAC2"/>
<path d="M15.5715 115.88H14.4113V130.748H15.5715V115.88ZM54.9028 115.88H53.7425V130.748H54.9028V115.88ZM94.234 115.88H93.0738V130.748H94.234V115.88ZM133.56 115.88H132.398V130.748H133.56V115.88ZM172.889 115.88H171.729V130.748H172.889V115.88ZM212.221 115.88H211.061V130.748H212.221V115.88ZM251.552 115.88H250.392V130.748H251.552V115.88ZM304.5 145.243H-17.5V146.403H304.5V145.243Z" fill="#DBCAC2"/>
<path d="M26.0925 130.956H24.9322V145.824H26.0925V130.956ZM65.4185 130.956H64.2583V145.824H65.4185V130.956ZM104.75 130.956H103.588V145.824H104.75V130.956ZM144.081 130.956H142.921V145.824H144.081V130.956ZM183.412 130.956H182.25V145.824H183.412V130.956ZM222.736 130.956H221.576V145.824H222.736V130.956ZM262.068 130.956H260.907V145.824H262.068V130.956ZM304.5 160.05H-17.5V161.21H304.5V160.05Z" fill="#DBCAC2"/>
<path d="M15.5715 145.759H14.4113V160.627H15.5715V145.759ZM54.9028 145.759H53.7425V160.627H54.9028V145.759ZM94.234 145.759H93.0738V160.627H94.234V145.759ZM133.56 145.759H132.398V160.627H133.56V145.759ZM172.889 145.759H171.729V160.627H172.889V145.759ZM212.221 145.759H211.061V160.627H212.221V145.759ZM251.552 145.759H250.392V160.627H251.552V145.759ZM304.5 175.122H-17.5V176.284H304.5V175.122Z" fill="#DBCAC2"/>
<path d="M26.0925 160.832H24.9322V175.702H26.0925V160.832ZM65.4185 160.832H64.2583V175.702H65.4185V160.832ZM104.75 160.832H103.588V175.702H104.75V160.832ZM144.081 160.832H142.921V175.702H144.081V160.832ZM183.412 160.832H182.25V175.702H183.412V160.832ZM222.736 160.832H221.576V175.702H222.736V160.832ZM262.068 160.832H260.907V175.702H262.068V160.832ZM304.5 190.197H-17.5V191.357H304.5V190.197Z" fill="#DBCAC2"/>
<path d="M15.5715 175.906H14.4113V190.774H15.5715V175.906ZM54.9028 175.906H53.7425V190.774H54.9028V175.906ZM94.234 175.906H93.0738V190.774H94.234V175.906ZM133.56 175.906H132.398V190.774H133.56V175.906ZM172.889 175.906H171.729V190.774H172.889V175.906ZM212.221 175.906H211.061V190.774H212.221V175.906ZM251.552 175.906H250.392V190.774H251.552V175.906ZM304.5 205.277H-17.5V206.437H304.5V205.277Z" fill="#DBCAC2"/>
<path d="M26.0925 190.983H24.9322V205.851H26.0925V190.983ZM65.4185 190.983H64.2583V205.851H65.4185V190.983ZM104.75 190.983H103.588V205.851H104.75V190.983ZM144.081 190.983H142.921V205.851H144.081V190.983ZM183.412 190.983H182.25V205.851H183.412V190.983ZM222.736 190.983H221.576V205.851H222.736V190.983ZM262.068 190.983H260.907V205.851H262.068V190.983ZM304.5 220.349H-17.5V221.51H304.5V220.349Z" fill="#DBCAC2"/>
<path d="M15.5715 206.055H14.4113V220.923H15.5715V206.055ZM54.9028 206.055H53.7425V220.923H54.9028V206.055ZM94.234 206.055H93.0738V220.923H94.234V206.055ZM133.56 206.055H132.398V220.923H133.56V206.055ZM172.889 206.055H171.729V220.923H172.889V206.055ZM212.221 206.055H211.061V220.923H212.221V206.055ZM251.552 206.055H250.392V220.923H251.552V206.055ZM304.5 235.422H-17.5V236.584H304.5V235.422Z" fill="#DBCAC2"/>
<path d="M26.0925 221.128H24.9322V235.998H26.0925V221.128ZM65.4185 221.128H64.2583V235.998H65.4185V221.128ZM104.75 221.128H103.588V235.998H104.75V221.128ZM144.081 221.128H142.921V235.998H144.081V221.128ZM183.412 221.128H182.25V235.998H183.412V221.128ZM222.736 221.128H221.576V235.998H222.736V221.128ZM262.068 221.128H260.907V235.998H262.068V221.128ZM304.5 250.497H-17.5V251.657H304.5V250.497Z" fill="#DBCAC2"/>
<path d="M15.5715 236.206H14.4113V251.074H15.5715V236.206ZM54.9028 236.206H53.7425V251.074H54.9028V236.206ZM94.234 236.206H93.0738V251.074H94.234V236.206ZM133.56 236.206H132.398V251.074H133.56V236.206ZM172.889 236.206H171.729V251.074H172.889V236.206ZM212.221 236.206H211.061V251.074H212.221V236.206ZM251.552 236.206H250.392V251.074H251.552V236.206ZM304.5 265.569H-17.5V266.73H304.5V265.569Z" fill="#DBCAC2"/>
<path d="M26.0919 251.279H24.9316V266.147H26.0919V251.279ZM65.4179 251.279H64.2576V266.147H65.4179V251.279ZM104.749 251.279H103.587V266.147H104.749V251.279ZM144.08 251.279H142.92V266.147H144.08V251.279ZM183.412 251.279H182.25V266.147H183.412V251.279ZM222.736 251.279H221.576V266.147H222.736V251.279ZM262.067 251.279H260.907V266.147H262.067V251.279Z" fill="#DBCAC2"/>
</g>
<path d="M259.86 266.024H19.2031V266.604H259.858L259.86 266.024Z" fill="#260D19"/>
<path d="M73.8982 119.368C70.085 114.02 55.1207 104.3 41.6632 123.13C28.2057 141.96 26.6412 152.446 9.54722 184.527C-7.54678 216.608 9.92171 266.905 84.8182 266.291C156.577 265.704 168.526 224.541 165.766 208.142C160.618 177.784 108.585 168.025 73.8982 119.368Z" fill="#508A82"/>
<g style="mix-blend-mode:multiply">
<path d="M137.23 184.016C121.791 183.23 114.713 173.205 91.2346 152.828C67.7566 132.451 51.3066 128.678 48.0586 158.062C45.4126 181.848 27.6641 189.928 27.6641 189.928C38.3338 188.636 51.7791 206.903 65.8228 209.458C92.9653 214.373 134.703 212.041 150.038 197.689C152.833 195.088 152.675 184.8 137.23 184.016Z" fill="#E6E3E4"/>
</g>
<path d="M98.7351 216.638C92.7203 211.05 85.0781 210.14 77.6826 209.24C66.3338 207.886 55.6203 206.607 49.6003 190.036C39.6131 162.519 55.5503 116.832 55.7166 116.37L55.0971 116.177C54.9308 116.637 38.9183 162.517 49.0298 190.253C55.1811 207.186 66.6016 208.553 77.6529 209.872C84.9241 210.737 92.4473 211.636 98.3028 217.082C105.131 223.443 106.416 234.796 101.546 245.999C97.7341 254.763 89.3743 264.129 77.3448 264.129V264.749C89.6928 264.749 98.2573 255.183 102.149 246.234C107.1 234.785 105.768 223.183 98.7351 216.638Z" fill="#260D19"/>
<path d="M138.801 196.427C131.193 194.115 125.406 194.036 120.303 193.963C111.061 193.832 103.083 193.718 87.8407 180.875C64.3592 161.117 64.1492 117.514 64.1492 117.075H63.4947C63.4947 117.512 63.6994 161.392 87.3944 181.335C102.821 194.315 110.911 194.423 120.284 194.56C125.586 194.64 131.095 194.714 138.594 196.996C149.315 200.244 153.35 212.291 153.555 222.483C153.788 234.283 148.746 248.804 137.115 252.787L137.343 253.358C149.292 249.266 154.447 234.472 154.209 222.46C154.01 212.086 149.852 199.778 138.801 196.427ZM48.3432 258.681C42.4057 256.545 36.7912 253.6 31.6587 249.93C26.6373 246.318 22.3424 241.792 18.9992 236.588C15.7868 231.442 13.6314 225.709 12.6589 219.721C12.5452 218.976 12.3929 218.241 12.3177 217.49L12.0447 215.231C11.9537 213.729 11.8347 212.233 11.8452 210.724C11.8574 209.216 11.8977 207.72 11.9432 206.218C11.9887 204.717 12.1479 203.219 12.3579 201.722C12.7243 198.729 13.2399 195.76 13.9049 192.817C14.6119 189.882 15.3679 186.951 16.2954 184.067C18.1436 178.27 20.3499 172.593 22.9017 167.069C25.4042 161.514 28.1937 156.081 31.1757 150.733C28.1027 156.03 25.2117 161.425 22.6059 166.95C20.0031 172.46 17.7413 178.125 15.8334 183.913C13.9132 189.678 12.5587 195.616 11.7892 201.644C11.5722 203.145 11.4882 204.659 11.3569 206.167C11.2293 207.681 11.1913 209.201 11.2432 210.719C11.2887 212.238 11.3394 213.752 11.4304 215.271L11.6754 217.548C11.7489 218.304 11.9029 219.049 12.0114 219.823C13.0127 225.887 15.214 231.691 18.4864 236.894C21.8726 242.159 26.2429 246.72 31.3577 250.329C36.5556 253.977 42.2326 256.89 48.2277 258.984C51.2393 260.044 54.3077 260.935 57.4187 261.653C60.5319 262.388 63.6889 262.915 66.8704 263.235C63.6988 262.86 60.5549 262.278 57.4589 261.494C54.3709 260.723 51.3272 259.784 48.3414 258.681" fill="#260D19"/>
<path d="M123.404 125.137L118.486 115.286C117.662 113.636 116.813 111.953 115.476 110.684C114.514 109.779 113.32 109.109 112.524 108.055C111.584 106.813 111.316 105.21 110.935 103.707C110.369 101.666 109.676 99.6633 108.859 97.7095C107.401 94.0263 105.948 90.3466 104.5 86.6705C103.681 84.588 102.792 82.432 101.154 80.9182C99.0593 79.0107 96.0966 78.4945 93.3578 78.7167C91.2578 78.8865 88.4193 79.1192 86.4383 79.9277C81.7501 81.8405 78.4723 89.67 78.7908 94.3827C78.9781 97.181 80.2013 100.032 79.3263 102.7C78.5126 105.185 76.1168 106.746 73.9486 108.208C71.7803 109.671 69.4983 111.52 69.1518 114.116C68.8666 116.233 69.9656 118.41 69.4196 120.472C68.9121 122.383 67.1446 123.686 66.3116 125.489C65.1216 128.142 66.3816 131.442 68.6846 133.206C70.9876 134.97 74.0851 135.413 76.9761 135.135C79.8671 134.855 82.6671 133.927 85.4601 133.194C95.973 130.469 107.007 130.469 117.52 133.194C119.562 133.73 121.969 134.293 123.586 132.939C124.095 132.451 124.477 131.844 124.696 131.173C124.915 130.502 124.965 129.787 124.842 129.092C124.588 127.703 124.101 126.366 123.404 125.137Z" fill="#260D19"/>
<path d="M136.239 140.985C134.676 137.111 132.374 133.578 129.462 130.583L120.159 119.453C119.985 119.282 119.795 119.13 119.59 118.998C117.437 117.126 113.951 115.498 109.279 113.752C107.674 113.153 102.769 111.617 102.769 111.617L101.819 125.445L97.6535 128.858L103.605 133.24L114.538 151.135C112.038 153.845 109.959 156.914 108.369 160.24C107.128 162.841 105.46 166.119 102.235 165.224C101.408 164.974 100.66 164.514 100.065 163.887L95.543 160.354C95.3438 160.155 95.0933 160.014 94.8192 159.948C94.545 159.881 94.2579 159.892 93.9895 159.979C93.7211 160.065 93.4817 160.224 93.2979 160.438C93.1141 160.652 92.9929 160.912 92.9478 161.191C92.7203 162.778 90.769 161.15 91.4918 162.659C92.7643 165.307 94.3788 167.777 96.2938 170.005C97.6818 171.619 99.5893 172.698 101.687 173.056C103.786 173.414 105.943 173.029 107.788 171.967C115.074 167.722 122.104 163.052 128.842 157.981C132.671 155.108 136.889 151.615 137.331 146.482C137.393 145.841 137.359 145.195 137.23 144.564C137.052 143.334 136.719 142.131 136.239 140.985ZM116.324 149.287C116.359 147.397 116.438 145.127 116.597 142.812L120.614 145.77C119.103 146.833 117.674 148.009 116.34 149.287H116.324Z" fill="#ECB8A4"/>
<path d="M89.5071 160.848L83.0094 166.18C82.3654 166.762 81.5806 167.166 80.7326 167.352C77.4426 168.007 76.0251 164.621 74.9804 161.929C73.8066 158.947 72.2513 156.129 70.3534 153.547L83.0881 132.676L87.2181 129.831L84.6806 127.617L83.5781 111.627C83.5781 111.627 78.6729 113.164 77.0681 113.762C73.2496 115.19 70.2396 116.538 68.0609 118.001C67.7397 118.178 67.4412 118.394 67.1719 118.643C66.5314 119.136 65.9574 119.71 65.4656 120.351L55.3874 130.594C52.3876 133.499 49.9816 136.96 48.3034 140.784C47.5385 142.384 47.1381 144.133 47.1309 145.906V146.111C47.2009 151.266 51.1489 155.055 54.7556 158.203C61.0942 163.755 67.7558 168.927 74.7056 173.691C76.4709 174.881 78.596 175.419 80.7151 175.211C82.8341 175.004 84.8144 174.064 86.3151 172.553C88.3903 170.475 90.181 168.13 91.6404 165.581C92.4769 164.125 92.1409 163.471 92.0271 161.866C92.0024 161.586 91.9007 161.318 91.7334 161.092C91.5661 160.866 91.3395 160.691 91.0788 160.586C90.8182 160.48 90.5334 160.449 90.2561 160.495C89.9787 160.541 89.7195 160.663 89.5071 160.848ZM70.0856 153.132C68.1681 150.58 65.9308 148.285 63.4286 146.303L69.7216 141.956C70.0856 146.583 70.0856 151.209 70.0856 153.132Z" fill="#ECB8A4"/>
<path d="M115.339 173.579C99.7467 173.372 84.4814 174.148 68.8837 174.272C66.4352 181.782 64.7984 189.533 64.0012 197.391C63.7457 199.918 63.6092 202.615 64.8097 204.846C66.3672 207.748 69.7552 209.114 72.9524 209.911C81.0199 211.93 89.4549 211.783 97.7674 211.617C103.691 211.503 109.66 211.407 115.407 209.911C117.416 209.38 119.52 208.665 120.785 207.02C122.491 204.811 122.115 201.705 121.615 198.968C120.048 190.384 117.952 181.905 115.339 173.579Z" fill="#260D19"/>
<path d="M155.44 172.428C149.898 169.243 124.53 176.936 115.909 181.687C116.2 189.567 118.027 197.619 120.309 204.619L148.498 190.558C151.838 188.89 155.27 187.143 157.601 183.883C159.936 180.623 159.503 174.788 155.44 172.428ZM26.6417 177.074C22.9492 180.016 23.4095 185.848 26.2042 188.727C28.999 191.606 32.6547 192.819 36.2055 193.968L66.176 203.676C67.3887 196.415 67.9925 188.181 67.1105 180.345C57.874 176.925 31.6432 173.096 26.6417 177.074Z" fill="#ECB8A4"/>
<path d="M103.841 111.937C103.493 111.778 103.271 111.709 102.914 111.566C102.156 111.23 101.304 110.997 100.574 110.684L99.3279 110.177C95.7036 108.743 92.9211 107.849 92.9211 107.849C92.9211 107.849 89.9041 108.801 86.0121 110.31L85.2561 110.605C84.2324 111.02 83.1614 111.458 82.0711 111.935L81.4201 112.226C80.9301 112.443 80.7376 112.418 80.2826 112.653C80.4646 113.979 80.2826 115.554 80.3351 116.881C80.8286 129.024 75.9356 139.295 68.6801 149.27L67.3379 179.018C67.3379 179.018 71.8896 174.916 75.7379 176.629C84.1239 180.367 88.5794 180.777 98.9586 180.777C101.934 180.777 105.406 177.573 110.379 178.108C112.751 178.366 115.079 178.941 117.299 179.816L116.609 151.011C108.717 139.983 105.196 125.906 103.841 111.937Z" fill="#C93D2F"/>
<path d="M102.736 89.6245C101.313 89.5265 100.055 90.9265 99.9234 92.7587C99.7922 94.591 99.6732 97.1687 101.096 97.272C102.519 97.3735 104.942 94.955 105.079 93.1245C105.215 91.2905 104.16 89.726 102.736 89.6245Z" fill="#ECB8A4"/>
<path d="M103.659 90.5589C102.669 90.6727 101.547 91.2187 100.814 94.3932C100.799 94.4585 100.808 94.527 100.84 94.5858C100.873 94.6445 100.925 94.6893 100.989 94.7117C101.019 94.7158 101.051 94.7158 101.081 94.7117C101.133 94.713 101.183 94.6993 101.227 94.6722C101.27 94.6452 101.305 94.6059 101.326 94.5594C101.438 94.3144 101.529 94.0618 101.598 93.8017C101.729 93.3642 101.843 92.9879 102.128 92.8287C102.529 92.6992 102.963 92.7167 103.351 92.8812C103.386 92.8905 103.421 92.8934 103.456 92.8899C103.51 92.8854 103.561 92.8644 103.602 92.83C103.643 92.7956 103.673 92.7493 103.687 92.6974C103.698 92.6631 103.701 92.627 103.698 92.5912C103.694 92.5554 103.684 92.5207 103.667 92.489C103.65 92.4573 103.627 92.4292 103.599 92.4065C103.571 92.3837 103.539 92.3666 103.505 92.3562C103.075 92.2001 102.612 92.1591 102.161 92.2372C102.304 91.9278 102.524 91.6605 102.8 91.4613C103.076 91.262 103.399 91.1374 103.738 91.0997C103.773 91.0955 103.808 91.0844 103.839 91.067C103.871 91.0495 103.898 91.0261 103.92 90.998C103.943 90.9699 103.959 90.9376 103.969 90.9031C103.979 90.8686 103.982 90.8325 103.978 90.7969C103.975 90.7593 103.964 90.7226 103.946 90.6895C103.928 90.6564 103.903 90.6275 103.873 90.605C103.843 90.5824 103.808 90.5666 103.771 90.5586C103.734 90.5507 103.696 90.5508 103.659 90.5589Z" fill="#260D19"/>
<path d="M97.0057 109.279L96.6819 106.503L96.2952 103.185H88.8629L88.5864 106.4L88.2959 109.427C87.5732 109.695 86.8049 109.996 85.9859 110.297C85.5495 111.257 85.3245 112.299 85.3262 113.353C85.3262 115.698 100.017 115.629 100.017 113.353C100.02 112.251 99.7748 111.162 99.2999 110.168C98.4932 109.837 97.7232 109.546 97.0057 109.279Z" fill="#ECB8A4"/>
<path d="M88.8648 103.185L88.5848 106.4C89.5035 106.788 90.4969 106.967 91.4933 106.925C93.3254 106.825 95.0778 106.143 96.4948 104.977L96.3023 103.185H88.8648ZM92.8478 79.611C87.4753 79.611 83.123 83.6797 83.123 88.7162C83.123 93.751 87.4753 97.8197 92.8478 97.8197C98.2185 97.8197 102.571 93.7457 102.571 88.7162C102.571 83.6867 98.208 79.611 92.8478 79.611Z" fill="#260D19"/>
<path d="M92.7091 105.998C97.8961 105.998 102.1 100.581 102.1 93.8998C102.1 87.2183 97.8961 81.802 92.7091 81.802C87.5221 81.802 83.3203 87.2183 83.3203 93.8998C83.3203 100.581 87.5238 105.998 92.7091 105.998Z" fill="#ECB8A4"/>
<path d="M81.79 89.6245C80.3673 89.726 79.3208 91.2975 79.4503 93.1245C79.5815 94.9497 82.0053 97.3735 83.4333 97.272C84.863 97.1687 84.737 94.591 84.6058 92.7587C84.4745 90.9265 83.2145 89.5265 81.79 89.6245Z" fill="#ECB8A4"/>
<path d="M80.8955 90.5589C80.8418 90.5508 80.7868 90.5595 80.7382 90.584C80.6896 90.6085 80.6498 90.6474 80.6243 90.6954C80.6091 90.7281 80.5991 90.763 80.5945 90.7987C80.5866 90.8701 80.6072 90.9417 80.6517 90.9981C80.6963 91.0544 80.7612 91.0909 80.8325 91.0997C81.1711 91.1374 81.4941 91.262 81.7704 91.4613C82.0466 91.6606 82.2667 91.9279 82.4093 92.2372C81.9591 92.1594 81.4965 92.2004 81.067 92.3562C81.015 92.3718 80.9688 92.4026 80.9345 92.4447C80.9001 92.4869 80.8793 92.5383 80.8745 92.5924C80.871 92.6274 80.8745 92.6625 80.885 92.6975C80.8947 92.7318 80.9111 92.7639 80.9333 92.7918C80.9555 92.8197 80.9831 92.8429 81.0144 92.86C81.0457 92.8772 81.0801 92.8878 81.1156 92.8915C81.1511 92.8951 81.1869 92.8916 81.221 92.8812C81.6095 92.7167 82.0435 92.6992 82.4443 92.8287C82.7278 92.9879 82.8415 93.3642 82.9728 93.8017C83.0428 94.0619 83.1338 94.3144 83.2458 94.5594L83.5818 94.6959C83.645 94.6736 83.6977 94.6288 83.73 94.57C83.7623 94.5113 83.7718 94.4428 83.7568 94.3774C82.985 91.2187 81.8633 90.6727 80.8955 90.5589ZM94.962 96.2815C94.5473 96.5265 94.0765 96.6577 93.597 96.6629C93.495 96.6722 93.3923 96.654 93.2995 96.6105C93.17 96.5212 93.177 96.2359 93.1928 96.0434L93.443 92.7359C93.4476 92.6612 93.4226 92.5877 93.3734 92.5312C93.3243 92.4747 93.2549 92.4399 93.1802 92.4341C93.1055 92.4284 93.0316 92.4522 92.9744 92.5005C92.9171 92.5488 92.8812 92.6176 92.8743 92.6922L92.6188 96.0032C92.5793 96.1949 92.59 96.3936 92.6498 96.58C92.7095 96.7664 92.8164 96.9342 92.96 97.0672C93.1298 97.1757 93.3275 97.2282 93.5288 97.2212H93.5638C94.136 97.2124 94.6978 97.0532 95.1913 96.7592C95.2426 96.7181 95.2774 96.6599 95.2892 96.5953C95.3011 96.5306 95.2892 96.4639 95.2558 96.4073C95.2224 96.3507 95.1697 96.308 95.1074 96.2872C95.0451 96.2663 94.9773 96.2686 94.9165 96.2937L94.962 96.2815ZM97.244 98.6212C96.5535 99.3826 95.6738 99.9478 94.6943 100.259C93.7148 100.571 92.6703 100.618 91.6668 100.396C91.5961 100.381 91.5225 100.394 91.4611 100.432C91.3998 100.47 91.3556 100.53 91.3378 100.6C91.3295 100.636 91.3282 100.672 91.334 100.708C91.3398 100.743 91.3525 100.778 91.3715 100.808C91.3906 100.839 91.4155 100.866 91.4448 100.887C91.4741 100.908 91.5074 100.923 91.5425 100.931C91.9894 101.034 92.4426 101.085 92.9023 101.085C93.7974 101.086 94.6827 100.899 95.501 100.536C96.3194 100.173 97.0526 99.6434 97.6535 98.98C97.691 98.9413 97.7165 98.8927 97.7271 98.84C97.7376 98.7872 97.7327 98.7325 97.713 98.6824C97.6979 98.6498 97.6778 98.6197 97.6535 98.5932C97.6113 98.553 97.5575 98.5271 97.4998 98.5189C97.4421 98.5108 97.3833 98.5208 97.3315 98.5477C97.2985 98.5672 97.269 98.5921 97.244 98.6212ZM95.2525 101.729C94.8432 102.03 94.3525 102.201 93.8447 102.218C93.3369 102.235 92.8357 102.098 92.407 101.825C92.3477 101.796 92.2798 101.79 92.2159 101.807C92.152 101.824 92.0965 101.864 92.0597 101.919C92.023 101.974 92.0074 102.04 92.0159 102.106C92.0244 102.171 92.0564 102.231 92.106 102.275C92.6286 102.618 93.2443 102.79 93.8688 102.769C94.4932 102.747 95.0958 102.534 95.5938 102.156C95.6426 102.109 95.6723 102.046 95.677 101.978C95.6817 101.911 95.6611 101.844 95.6192 101.791C95.5773 101.737 95.5171 101.701 95.4503 101.69C95.3835 101.679 95.3149 101.693 95.2578 101.729H95.2525ZM89.5458 91.007C89.1923 91.007 88.9018 91.4795 88.9018 92.0657C88.9018 92.652 89.1923 93.1297 89.5458 93.1297C89.8993 93.1297 90.188 92.652 90.188 92.0657C90.188 91.4795 89.8975 91.007 89.5458 91.007ZM96.8975 91.007C96.5388 91.007 96.2535 91.4795 96.2535 92.0657C96.2535 92.652 96.5388 93.1297 96.8975 93.1297C97.2563 93.1297 97.5345 92.652 97.5345 92.0657C97.5345 91.4795 97.2493 91.007 96.8975 91.007ZM90.8478 89.5334C90.8478 89.3864 90.734 89.2674 90.643 89.2552C90.2927 89.1752 89.9286 89.1761 89.5787 89.258C89.2287 89.3399 88.902 89.5005 88.6235 89.7277C88.2633 90.0647 88.0132 90.5027 87.906 90.9842C87.8325 91.2695 88.1108 91.5879 88.2368 91.3552C88.4118 90.9877 88.6848 90.6727 89.0208 90.4452C89.2759 90.2892 89.5664 90.2005 89.8651 90.1873C90.1638 90.1742 90.461 90.237 90.7288 90.3699C90.853 90.4277 90.944 90.2859 90.916 90.0917C90.888 89.8992 90.8758 89.7154 90.8478 89.5334ZM98.2275 89.7277C97.949 89.5005 97.6224 89.3399 97.2724 89.258C96.9224 89.1761 96.5584 89.1752 96.208 89.2552C96.117 89.2552 96.026 89.3864 96.0033 89.5352C95.9805 89.6822 95.9473 89.9027 95.9123 90.1039C95.8773 90.3017 95.9753 90.4382 96.0995 90.3822C96.3672 90.249 96.6643 90.1859 96.963 90.1987C97.2617 90.2116 97.5523 90.3 97.8075 90.4557C98.1453 90.6867 98.4183 90.9982 98.5985 91.3657C98.7175 91.6002 98.9958 91.2817 98.9223 90.9964C98.8242 90.5135 98.5809 90.0713 98.2275 89.7277ZM87.1553 83.6622C86.5865 83.6622 82.7558 86.7632 83.4505 89.9622C84.2415 93.5742 84.5425 95.9192 84.5425 95.9192C84.5425 95.9192 86.4273 94.4842 86.4273 90.7969C86.4273 87.1097 87.7643 83.6622 87.1553 83.6622ZM100.016 83.6622C97.4313 84.4637 100.532 87.0747 100.532 90.7847C100.532 94.4947 101.892 95.9069 101.892 95.9069C102.041 94.2036 102.1 92.4962 102.069 90.7847C102.069 87.0817 100.42 83.5362 100.016 83.6622ZM73.0433 184.977C71.9058 182.968 70.42 180.036 68.4915 178.717C66.9428 177.658 63.9905 177.579 62.1863 177.271C58.7211 176.637 55.2087 176.295 51.6863 176.248C52.3933 180.39 53.7688 184.401 54.2815 188.573C54.7943 192.743 54.2815 197.279 51.6758 200.55L57.9355 203.094C59.4487 203.672 60.9222 204.338 62.356 205.091C64.2985 206.16 66.0485 207.55 68.047 208.546C70.147 209.597 72.5655 210.184 74.8755 209.683C77.1855 209.183 79.268 207.469 79.758 205.194C80.143 203.43 79.576 201.614 79.0178 199.895C77.3675 194.803 75.6718 189.665 73.0433 184.977ZM131.539 187.388C131.728 183.188 132.792 179.079 133.166 174.897C129.654 175.222 126.175 175.839 122.764 176.741C120.997 177.208 118.053 177.497 116.597 178.675C114.76 180.15 113.496 183.193 112.529 185.283C110.254 190.158 108.983 195.417 107.72 200.618C107.293 202.37 106.873 204.225 107.396 205.954C108.073 208.203 110.32 209.757 112.648 210.058C114.975 210.359 117.348 209.59 119.357 208.35C121.251 207.212 122.896 205.688 124.745 204.47C126.114 203.608 127.534 202.829 128.996 202.137L135.056 199.115C132.183 196.087 131.339 191.581 131.539 187.388Z" fill="#260D19"/>
<path d="M118.941 199.696C117.468 198.557 115.989 197.374 114.496 196.231C113.172 195.218 111.721 194.154 110.048 194.063C108.585 193.987 107.157 194.665 105.69 194.603C105.049 194.564 104.422 194.404 103.841 194.131C101.809 193.219 100.106 191.285 97.9169 190.62C95.8344 190.004 93.5804 190.654 91.5994 191.541C89.9334 192.269 88.3164 193.174 86.5821 193.681C85.4589 193.527 84.3495 193.286 83.2641 192.958C76.3621 190.79 64.2469 180.873 57.1174 178.733C53.9026 177.777 47.2386 177.628 41.3044 177.725L26.2246 188.771C32.9166 197.118 60.8606 200.618 78.7351 202.034C83.0541 202.375 86.7799 202.603 89.4784 202.734C89.9719 202.802 90.4741 202.876 90.9676 202.961C94.3819 203.492 97.7961 204.06 101.17 204.594L101.506 204.652C103.401 204.953 105.286 205.256 107.169 205.544L109.262 205.875C112.325 206.37 115.522 206.848 118.476 205.824C119.738 205.375 121.036 204.47 121.167 203.133C121.203 202.524 121.03 201.922 120.677 201.425C120.19 200.763 119.605 200.18 118.941 199.696Z" fill="#ECB8A4"/>
<path d="M124.279 179.506C117.451 182.768 107.089 194.131 100.488 197.386C99.4534 197.882 98.3877 198.301 97.291 198.642C95.4141 198.406 93.5537 198.053 91.7207 197.585C89.5175 197.13 87.1008 196.936 85.1023 197.881C82.3898 199.167 80.9425 202.307 77.9797 203.002C76.4992 203.332 74.905 202.956 73.4263 203.297C71.7183 203.684 70.4793 204.92 69.3295 206.11C68.0392 207.433 66.7605 208.76 65.4935 210.093C64.5258 211.122 63.502 212.403 63.9238 213.694C64.3455 214.986 65.8243 215.509 67.2015 215.686C70.3865 216.1 73.568 215.082 76.5955 214.076L84.243 211.531C88.226 210.212 92.1635 208.875 96.136 207.548C110.134 204.391 151.331 194.257 157.75 183.178L136.575 176.309C131.621 177.226 126.761 178.323 124.279 179.506Z" fill="#ECB8A4"/>
<path d="M124.195 179.331C120.683 181.004 116.228 184.823 111.91 188.52C107.829 192.015 103.614 195.629 100.404 197.211C99.388 197.696 98.3427 198.108 97.2682 198.445C95.9255 198.302 94.5945 198.064 93.2852 197.734L91.7662 197.393C88.8752 196.824 86.7349 196.898 85.0234 197.706C83.8574 198.341 82.8024 199.162 81.8997 200.135C80.6922 201.313 79.5547 202.412 77.9167 202.781C77.1842 202.913 76.4392 202.96 75.6959 202.923C74.9168 202.885 74.1358 202.936 73.3684 203.077C71.6622 203.464 70.4214 204.654 69.1684 205.922C67.8332 207.3 66.5417 208.654 65.3359 209.933L65.6194 210.201C66.8269 208.92 68.1167 207.573 69.4484 206.218C70.6612 204.972 71.8792 203.822 73.4314 203.458C74.1704 203.322 74.923 203.275 75.6732 203.317C76.4385 203.351 77.1974 203.299 77.9499 203.163C79.6562 202.781 80.9039 201.581 82.0974 200.42C82.9683 199.472 83.9894 198.674 85.1197 198.058C86.8154 197.29 88.8647 197.227 91.7084 197.797C92.2136 197.9 92.7182 198.011 93.2222 198.131C94.5674 198.471 95.9294 198.712 97.3084 198.854H97.3837C98.4875 198.515 99.564 198.093 100.604 197.591C103.859 195.988 107.908 192.516 112.194 188.846C116.48 185.176 120.928 181.363 124.388 179.713C126.523 178.699 130.648 177.635 136.645 176.549L136.571 176.162C130.511 177.226 126.358 178.302 124.195 179.331Z" fill="#260D19"/>
<path d="M104.989 167.639C103.327 168.387 101.792 169.389 100.437 170.609L100.101 170.882C98.6401 172.065 97.0563 173.262 95.2311 173.728C92.1231 174.536 88.9381 173.192 85.8598 171.895L85.2211 171.622C82.3248 170.41 78.0916 169.027 74.8086 171.054C74.7596 171.094 74.7269 171.151 74.7165 171.213C74.706 171.276 74.7186 171.34 74.752 171.394C74.7853 171.448 74.837 171.488 74.8976 171.507C74.9582 171.526 75.0236 171.522 75.0816 171.496C78.1651 169.624 82.2286 170.963 85.0163 172.128L85.6533 172.396C88.1348 173.442 90.6846 174.519 93.2501 174.519C93.9623 174.52 94.6728 174.433 95.3623 174.256C97.2908 173.749 98.9236 172.55 100.432 171.299L100.768 171.031C102.078 169.846 103.563 168.871 105.171 168.14C106.702 167.571 108.888 167.349 110.44 168.584C110.495 168.616 110.559 168.627 110.621 168.616C110.683 168.604 110.739 168.571 110.778 168.521C110.817 168.472 110.837 168.411 110.835 168.349C110.833 168.286 110.808 168.226 110.766 168.18C109.047 166.815 106.652 167.018 104.991 167.638" fill="#E9EFFA"/>
<path d="M128.656 141.362C120.119 144.246 112.249 151.428 108.119 160.104C108.094 160.157 108.086 160.216 108.097 160.274C108.108 160.332 108.138 160.384 108.181 160.424C108.224 160.463 108.279 160.488 108.337 160.494C108.395 160.5 108.454 160.487 108.504 160.458C108.554 160.432 108.593 160.39 108.615 160.339C112.682 151.804 120.432 144.713 128.831 141.88C128.866 141.869 128.898 141.852 128.926 141.829C128.954 141.805 128.976 141.776 128.993 141.744C129.009 141.711 129.018 141.676 129.02 141.639C129.021 141.603 129.015 141.567 129.002 141.533C128.991 141.499 128.973 141.467 128.95 141.44C128.926 141.413 128.897 141.391 128.864 141.376C128.798 141.344 128.725 141.339 128.656 141.362ZM56.1445 141.64C56.1108 141.621 56.0735 141.61 56.0352 141.607C55.9969 141.604 55.9583 141.609 55.9221 141.622C55.8858 141.634 55.8525 141.654 55.8245 141.681C55.7965 141.707 55.7744 141.739 55.7595 141.775C55.7446 141.81 55.7374 141.848 55.7384 141.887C55.7393 141.925 55.7483 141.963 55.7648 141.997C55.7813 142.032 55.805 142.063 55.8342 142.088C55.8635 142.113 55.8976 142.131 55.9345 142.142C64.1052 145.584 71.2977 153.209 74.74 162.057C74.7633 162.11 74.7995 162.152 74.8485 162.183C74.8832 162.209 74.9242 162.225 74.9672 162.23C75.0103 162.235 75.0538 162.228 75.0935 162.211C75.1271 162.198 75.1579 162.179 75.184 162.154C75.2101 162.129 75.2311 162.1 75.2457 162.067C75.2603 162.034 75.2683 161.999 75.2692 161.963C75.2702 161.927 75.264 161.891 75.251 161.858C71.793 152.88 64.4465 145.135 56.1445 141.64Z" fill="#260D19"/>
<path d="M48.9863 136.342L67.3298 146.078L69.5331 142.322L68.6406 149.287L73.0208 148.855L82.1541 126.395L86.0181 110.297C86.0181 110.297 64.0083 112.518 48.9863 136.342ZM99.6068 110.297L103.441 126.367L112.546 148.827L116.58 151.056L116.755 143.181L118.243 146.027L136.611 136.342C121.594 112.518 99.6068 110.297 99.6068 110.297Z" fill="#C93D2F"/>
<path d="M90.2178 81.5605C88.4349 81.9418 86.8322 82.912 85.6678 84.315C84.6297 85.7764 84.0976 87.537 84.1523 89.3287C84.14 91.1417 84.3185 92.9512 84.6878 94.7275C85.974 94.535 86.6058 93.1122 87.4475 92.1217C88.62 90.7515 90.4295 90.097 92.1865 89.6927C93.9435 89.2885 95.7723 89.0557 97.4103 88.2927C99.05 87.5297 100.508 86.0615 100.643 84.259C99.2664 82.9777 97.5924 82.0599 95.7721 81.5887C93.9518 81.1176 92.0427 81.1078 90.2178 81.5605Z" fill="#260D19"/>
<mask id="mask3_1_14656" style="mask-type:luminance" maskUnits="userSpaceOnUse" x="76" y="181" width="6" height="2">
<path d="M76.3447 181.864H80.5097C80.6231 181.864 80.7335 181.9 80.8254 181.966C80.9174 182.032 80.9863 182.125 81.0225 182.233L81.0907 182.518H76.3447L76.2135 182.028C76.2101 182.008 76.2101 181.988 76.2135 181.969C76.2167 181.948 76.225 181.929 76.2375 181.913C76.2501 181.897 76.2665 181.884 76.2852 181.876C76.3042 181.868 76.3243 181.864 76.3447 181.864Z" fill="white"/>
</mask>
<g mask="url(#mask3_1_14656)">
<path d="M81.0961 181.857H81.0156V182.511H81.0961V181.857ZM81.0104 181.857H80.9316V182.511H81.0104V181.857Z" fill="#A8CCFC"/>
<path d="M80.9321 181.857H80.8516V182.511H80.9321V181.857Z" fill="#A9CDFC"/>
<path d="M80.8502 181.857H80.7715V182.511H80.8502V181.857Z" fill="#AACDFC"/>
<path d="M80.768 181.857H80.6875V182.511H80.7663L80.768 181.857Z" fill="#ABCEFC"/>
<path d="M80.6866 181.857H80.6061V182.511H80.6866V181.857ZM80.6061 181.857H80.5273V182.511H80.6061V181.857Z" fill="#ACCEFC"/>
<path d="M80.5225 181.857H80.442V182.511H80.5225V181.857ZM80.442 181.857H80.3633V182.511H80.442V181.857Z" fill="#ADCFFC"/>
<path d="M80.3619 181.857H80.2832V182.511H80.3619V181.857Z" fill="#AED0FC"/>
<path d="M80.2778 181.857H80.1973V182.511H80.2778V181.857Z" fill="#AFD0FC"/>
<path d="M80.1959 181.857H80.1172V182.511H80.1959V181.857Z" fill="#B0D1FC"/>
<path d="M80.1159 181.857H80.0371V182.511H80.1176L80.1159 181.857Z" fill="#B1D1FC"/>
<path d="M80.0323 181.857H79.9535V182.511H80.0323V181.857ZM79.9535 181.857H79.873V182.511H79.9535V181.857Z" fill="#B2D2FC"/>
<path d="M79.8737 181.857H79.7949V182.511H79.8737V181.857Z" fill="#B3D2FC"/>
<path d="M79.788 181.857H79.7092V182.511H79.788V181.857ZM79.7092 181.857H79.627V182.511H79.7092V181.857Z" fill="#B4D3FC"/>
<path d="M79.6276 181.857H79.5488V182.511H79.6276V181.857Z" fill="#B5D4FC"/>
<path d="M79.5416 181.857H79.4629V182.511H79.5416V181.857Z" fill="#B6D4FC"/>
<path d="M79.4633 181.857H79.3828V182.511H79.4633V181.857Z" fill="#B7D5FC"/>
<path d="M79.3834 181.857H79.3047V182.511H79.3834V181.857Z" fill="#B8D5FC"/>
<path d="M79.2997 181.857H79.2192V182.511H79.2997V181.857ZM79.2192 181.857H79.1387V182.511H79.2192V181.857Z" fill="#B9D6FC"/>
<path d="M79.1391 181.857H79.0586V182.511H79.1373L79.1391 181.857Z" fill="#BAD7FD"/>
<path d="M79.0532 181.857H78.9727V182.511H79.0532V181.857Z" fill="#BBD7FD"/>
<path d="M78.9733 181.857H78.8945V182.511H78.9733V181.857Z" fill="#BCD7FD"/>
<path d="M78.895 181.857H78.8145V182.511H78.895V181.857Z" fill="#BDD8FD"/>
<path d="M78.809 181.857H78.7285V182.511H78.809V181.857Z" fill="#BED8FD"/>
<path d="M78.7291 181.857H78.6504V182.511H78.7291V181.857Z" fill="#BFD9FD"/>
<path d="M78.6489 181.857H78.5684V182.511H78.6489V181.857Z" fill="#C0D9FD"/>
<path d="M78.5636 181.857H78.4848V182.511H78.5636V181.857ZM78.4848 181.857H78.4043V182.511H78.4848V181.857Z" fill="#C1DAFD"/>
<path d="M78.4049 181.857H78.3262V182.511H78.4049V181.857Z" fill="#C2DBFD"/>
<path d="M78.319 181.857H78.2402V182.511H78.319V181.857Z" fill="#C3DBFD"/>
<path d="M78.2407 181.857H78.1602V182.511H78.2407V181.857Z" fill="#C4DCFD"/>
<path d="M78.1588 181.857H78.0801V182.511H78.1588V181.857Z" fill="#C5DCFD"/>
<path d="M78.0735 181.857H77.9948V182.511H78.0735V181.857ZM77.9948 181.857H77.916V182.511H77.9948V181.857Z" fill="#C6DDFD"/>
<path d="M77.9147 181.857H77.8359V182.511H77.9147V181.857Z" fill="#C7DEFD"/>
<path d="M77.8305 181.857H77.75V182.511H77.8305V181.857Z" fill="#C8DEFD"/>
<path d="M77.7506 181.857H77.6719V182.511H77.7506V181.857Z" fill="#C9DEFD"/>
<path d="M77.6723 181.857H77.5918V182.511H77.6723V181.857Z" fill="#CADFFD"/>
<path d="M77.5864 181.857H77.5059V182.511H77.5864V181.857Z" fill="#CBDFFD"/>
<path d="M77.5045 181.857H77.4258V182.511H77.5045V181.857Z" fill="#CCE0FD"/>
<path d="M77.4262 181.857H77.3457V182.511H77.4262V181.857Z" fill="#CCE0FD"/>
<path d="M77.3403 181.857H77.2598V182.511H77.3403V181.857Z" fill="#CDE1FD"/>
<path d="M77.2621 181.857H77.1816V182.511H77.2604L77.2621 181.857Z" fill="#CEE1FD"/>
<path d="M77.1821 181.857H77.1016V182.511H77.1821V181.857Z" fill="#CFE2FD"/>
<path d="M77.0963 181.857H77.0176V182.511H77.0963V181.857Z" fill="#D0E2FD"/>
<path d="M77.016 181.857H76.9355V182.511H77.016V181.857Z" fill="#D1E3FD"/>
<path d="M76.9362 181.857H76.8574V182.511H76.9362V181.857Z" fill="#D2E3FD"/>
<path d="M76.8502 181.857H76.7715V182.511H76.8502V181.857Z" fill="#D3E4FD"/>
<path d="M76.7719 181.857H76.6914V182.511H76.7719V181.857Z" fill="#D4E4FD"/>
<path d="M76.692 181.857H76.6133V182.511H76.692V181.857Z" fill="#D5E5FD"/>
<path d="M76.6078 181.857H76.5273V182.511H76.6078V181.857Z" fill="#D6E5FD"/>
<path d="M76.5282 181.857H76.4477V182.511H76.5264L76.5282 181.857ZM76.4477 181.857H76.3672V182.511H76.4477V181.857Z" fill="#D7E6FD"/>
<path d="M76.3617 181.857H76.2812V182.511H76.3617V181.857Z" fill="#D8E7FD"/>
<path d="M76.2836 181.857H76.2031V182.511H76.2819L76.2836 181.857Z" fill="#D9E7FD"/>
</g>
<mask id="mask4_1_14656" style="mask-type:luminance" maskUnits="userSpaceOnUse" x="81" y="181" width="6" height="2">
<path d="M82.1014 181.863H86.2611C86.3744 181.862 86.4851 181.898 86.5765 181.965C86.668 182.031 86.7354 182.126 86.7686 182.234L86.8299 182.518H82.0751L81.9561 182.03C81.9517 182.009 81.9522 181.987 81.9577 181.966C81.9631 181.945 81.9734 181.925 81.9876 181.909C82.0027 181.894 82.0205 181.881 82.0401 181.872C82.0604 181.865 82.08 181.862 82.1014 181.863Z" fill="white"/>
</mask>
<g mask="url(#mask4_1_14656)">
<path d="M86.8323 181.86H86.7518V182.514H86.8305L86.8323 181.86ZM86.7465 181.86H86.666V182.514H86.7465V181.86Z" fill="#A8CCFC"/>
<path d="M86.6664 181.86H86.5859V182.514H86.6664V181.86Z" fill="#A9CDFC"/>
<path d="M86.5864 181.86H86.5059V182.514H86.5864V181.86Z" fill="#AACDFC"/>
<path d="M86.5004 181.86H86.4199V182.514H86.5004V181.86Z" fill="#ABCEFC"/>
<path d="M86.421 181.86H86.3422V182.514H86.421V181.86ZM86.3422 181.86H86.2617V182.514H86.3422V181.86Z" fill="#ACCEFC"/>
<path d="M86.2622 181.86H86.1834V182.514H86.2622V181.86ZM86.1782 181.86H86.0977V182.514H86.1764L86.1782 181.86Z" fill="#ADCFFC"/>
<path d="M86.0963 181.86H86.0176V182.514H86.0963V181.86Z" fill="#AED0FC"/>
<path d="M86.018 181.86H85.9375V182.514H86.018V181.86Z" fill="#AFD0FC"/>
<path d="M85.9321 181.86H85.8516V182.514H85.9321V181.86Z" fill="#B0D1FC"/>
<path d="M85.8522 181.86H85.7734V182.514H85.8522V181.86Z" fill="#B1D1FC"/>
<path d="M85.7739 181.86H85.6934V182.514H85.7739V181.86ZM85.6881 181.86H85.6094V182.514H85.6881V181.86Z" fill="#B2D2FC"/>
<path d="M85.6061 181.86H85.5273V182.514H85.6061V181.86Z" fill="#B3D2FC"/>
<path d="M85.5284 181.86H85.4479V182.514H85.5284V181.86ZM85.4479 181.86H85.3691V182.514H85.4479V181.86Z" fill="#B4D3FC"/>
<path d="M85.3637 181.86H85.2832V182.514H85.3637V181.86Z" fill="#B5D4FC"/>
<path d="M85.2838 181.86H85.2051V182.514H85.2838V181.86Z" fill="#B6D4FC"/>
<path d="M85.2035 181.86H85.123V182.514H85.2035V181.86Z" fill="#B7D5FC"/>
<path d="M85.1176 181.86H85.0371V182.514H85.1176V181.86Z" fill="#B8D5FC"/>
<path d="M85.0382 181.86H84.9594V182.514H85.0382V181.86ZM84.9594 181.86H84.8789V182.514H84.9594V181.86Z" fill="#B9D6FC"/>
<path d="M84.8735 181.86H84.793V182.514H84.8735V181.86Z" fill="#BAD7FD"/>
<path d="M84.7953 181.86H84.7148V182.514H84.7936L84.7953 181.86Z" fill="#BBD7FD"/>
<path d="M84.7133 181.86H84.6328V182.514H84.7133V181.86Z" fill="#BCD7FD"/>
<path d="M84.6334 181.86H84.5547V182.514H84.6334V181.86Z" fill="#BDD8FD"/>
<path d="M84.5492 181.86H84.4688V182.514H84.5492V181.86Z" fill="#BED8FD"/>
<path d="M84.4694 181.86H84.3906V182.514H84.4694V181.86Z" fill="#BFD9FD"/>
<path d="M84.391 181.86H84.3105V182.514H84.3893L84.391 181.86Z" fill="#C0D9FD"/>
<path d="M84.3038 181.86H84.2233V182.514H84.3038V181.86ZM84.2233 181.86H84.1445V182.514H84.2233V181.86Z" fill="#C1DAFD"/>
<path d="M84.145 181.86H84.0645V182.514H84.145V181.86Z" fill="#C2DBFD"/>
<path d="M84.0592 181.86H83.9805V182.514H84.0592V181.86Z" fill="#C3DBFD"/>
<path d="M83.9791 181.86H83.9004V182.514H83.9791V181.86Z" fill="#C4DCFD"/>
<path d="M83.901 181.86H83.8223V182.514H83.901V181.86Z" fill="#C5DCFD"/>
<path d="M83.8155 181.86H83.7367V182.514H83.8155V181.86ZM83.7367 181.86H83.6562V182.514H83.7367V181.86Z" fill="#C6DDFD"/>
<path d="M83.6549 181.86H83.5762V182.514H83.6549V181.86Z" fill="#C7DEFD"/>
<path d="M83.5766 181.86H83.4961V182.514H83.5766V181.86Z" fill="#C8DEFD"/>
<path d="M83.4907 181.86H83.4102V182.514H83.4907V181.86Z" fill="#C9DEFD"/>
<path d="M83.4108 181.86H83.332V182.514H83.4108V181.86Z" fill="#CADFFD"/>
<path d="M83.3325 181.86H83.252V182.514H83.3325V181.86Z" fill="#CBDFFD"/>
<path d="M83.2465 181.86H83.166V182.514H83.2465V181.86Z" fill="#CCE0FD"/>
<path d="M83.1664 181.86H83.0859V182.514H83.1647L83.1664 181.86Z" fill="#CCE0FD"/>
<path d="M83.0864 181.86H83.0059V182.514H83.0864V181.86Z" fill="#CDE1FD"/>
<path d="M83.0082 181.86H82.9277V182.514H83.0065L83.0082 181.86Z" fill="#CEE1FD"/>
<path d="M82.9223 181.86H82.8418V182.514H82.9223V181.86Z" fill="#CFE2FD"/>
<path d="M82.8422 181.86H82.7617V182.514H82.8422V181.86Z" fill="#D0E2FD"/>
<path d="M82.7621 181.86H82.6816V182.514H82.7621V181.86Z" fill="#D1E3FD"/>
<path d="M82.6782 181.86H82.5977V182.514H82.6782V181.86Z" fill="#D2E3FD"/>
<path d="M82.5963 181.86H82.5176V182.514H82.5963V181.86Z" fill="#D3E4FD"/>
<path d="M82.518 181.86H82.4375V182.514H82.518V181.86Z" fill="#D4E4FD"/>
<path d="M82.4323 181.86H82.3535V182.514H82.4323V181.86Z" fill="#D5E5FD"/>
<path d="M82.3539 181.86H82.2734V182.514H82.3539V181.86Z" fill="#D6E5FD"/>
<path d="M82.2725 181.86H82.1938V182.514H82.2725V181.86ZM82.1938 181.86H82.1133V182.514H82.1938V181.86Z" fill="#D7E6FD"/>
<path d="M82.1078 181.86H82.0273V182.514H82.1078V181.86Z" fill="#D8E7FD"/>
<path d="M82.028 181.86H81.9492V182.514H82.028V181.86Z" fill="#D9E7FD"/>
</g>
<mask id="mask5_1_14656" style="mask-type:luminance" maskUnits="userSpaceOnUse" x="87" y="181" width="6" height="2">
<path d="M87.8505 181.863H92.0155C92.1274 181.862 92.2367 181.898 92.3263 181.965C92.4158 182.032 92.4807 182.127 92.5108 182.235L92.5668 182.518H87.805L87.7018 182.03C87.6977 182.009 87.6985 181.987 87.7042 181.966C87.71 181.945 87.7205 181.926 87.7349 181.91C87.7493 181.894 87.7672 181.881 87.7873 181.873C87.8074 181.865 87.829 181.862 87.8505 181.863Z" fill="white"/>
</mask>
<g mask="url(#mask5_1_14656)">
<path d="M92.5668 181.86H92.4881V182.514H92.5668V181.86ZM92.4811 181.86H92.4023V182.514H92.4811V181.86Z" fill="#A8CCFC"/>
<path d="M92.401 181.86H92.3223V182.514H92.4028L92.401 181.86Z" fill="#A9CDFC"/>
<path d="M92.3229 181.86H92.2441V182.514H92.3229V181.86Z" fill="#AACDFC"/>
<path d="M92.2387 181.86H92.1582V182.514H92.2387V181.86Z" fill="#ABCEFC"/>
<path d="M92.1586 181.86H92.0781V182.514H92.1586V181.86Z" fill="#ACCEFC"/>
<path d="M92.0785 181.86H91.998V182.514H92.0785V181.86Z" fill="#ACCEFC"/>
<path d="M91.9985 181.86H91.918V182.514H91.9985V181.86ZM91.9127 181.86H91.834V182.514H91.9127V181.86Z" fill="#ADCFFC"/>
<path d="M91.8344 181.86H91.7539V182.514H91.8344V181.86Z" fill="#AED0FC"/>
<path d="M91.7545 181.86H91.6758V182.514H91.7545V181.86Z" fill="#AFD0FC"/>
<path d="M91.6742 181.86H91.5938V182.514H91.6742V181.86Z" fill="#B0D1FC"/>
<path d="M91.5883 181.86H91.5078V182.514H91.5883V181.86Z" fill="#B1D1FC"/>
<path d="M91.5089 181.86H91.4301V182.514H91.5089V181.86ZM91.4301 181.86H91.3496V182.514H91.4301V181.86Z" fill="#B2D2FC"/>
<path d="M91.352 181.86H91.2715V182.514H91.3502L91.352 181.86Z" fill="#B3D2FC"/>
<path d="M91.263 181.86H91.1842V182.514H91.2647L91.263 181.86ZM91.1842 181.86H91.1055V182.514H91.1842V181.86Z" fill="#B4D3FC"/>
<path d="M91.1059 181.86H91.0254V182.514H91.1041L91.1059 181.86Z" fill="#B5D4FC"/>
<path d="M91.0258 181.86H90.9453V182.514H91.0258V181.86Z" fill="#B6D4FC"/>
<path d="M90.9401 181.86H90.8613V182.514H90.9401V181.86Z" fill="#B7D5FC"/>
<path d="M90.8617 181.86H90.7812V182.514H90.8617V181.86Z" fill="#B8D5FC"/>
<path d="M90.7817 181.86H90.7029V182.514H90.7817V181.86ZM90.6959 181.86H90.6172V182.514H90.6959V181.86Z" fill="#B9D6FC"/>
<path d="M90.6157 181.86H90.5352V182.514H90.6157V181.86Z" fill="#BAD7FD"/>
<path d="M90.5358 181.86H90.457V182.514H90.5358V181.86Z" fill="#BBD7FD"/>
<path d="M90.4574 181.86H90.377V182.514H90.4574V181.86Z" fill="#BCD7FD"/>
<path d="M90.3715 181.86H90.291V182.514H90.3715V181.86Z" fill="#BDD8FD"/>
<path d="M90.2934 181.86H90.2129V182.514H90.2934V181.86Z" fill="#BED8FD"/>
<path d="M90.2114 181.86H90.1309V182.514H90.2114V181.86Z" fill="#BFD9FD"/>
<path d="M90.1332 181.86H90.0527V182.514H90.1332V181.86Z" fill="#C0D9FD"/>
<path d="M90.0473 181.86H89.9668V182.514H90.0473V181.86Z" fill="#C1DAFD"/>
<path d="M89.9692 181.86H89.8887V182.514H89.9674L89.9692 181.86Z" fill="#C1DAFD"/>
<path d="M89.8891 181.86H89.8086V182.514H89.8891V181.86Z" fill="#C2DBFD"/>
<path d="M89.8073 181.86H89.7285V182.514H89.8073V181.86Z" fill="#C3DBFD"/>
<path d="M89.7231 181.86H89.6426V182.514H89.7213L89.7231 181.86Z" fill="#C4DCFD"/>
<path d="M89.643 181.86H89.5625V182.514H89.643V181.86Z" fill="#C5DCFD"/>
<path d="M89.5629 181.86H89.4842V182.514H89.5629V181.86ZM89.4789 181.86H89.3984V182.514H89.4772L89.4789 181.86Z" fill="#C6DDFD"/>
<path d="M89.3991 181.86H89.3203V182.514H89.3991V181.86Z" fill="#C7DEFD"/>
<path d="M89.317 181.86H89.2383V182.514H89.317V181.86Z" fill="#C8DEFD"/>
<path d="M89.2387 181.86H89.1582V182.514H89.2387V181.86Z" fill="#C9DEFD"/>
<path d="M89.1532 181.86H89.0762V182.514H89.1549L89.1532 181.86Z" fill="#CADFFD"/>
<path d="M89.0746 181.86H88.9941V182.514H89.0746V181.86Z" fill="#CBDFFD"/>
<path d="M88.9932 181.86H88.9145V182.514H88.9932V181.86ZM88.9145 181.86H88.834V182.514H88.9145V181.86Z" fill="#CCE0FD"/>
<path d="M88.8285 181.86H88.748V182.514H88.8285V181.86Z" fill="#CDE1FD"/>
<path d="M88.7487 181.86H88.6699V182.514H88.7487V181.86Z" fill="#CEE1FD"/>
<path d="M88.6703 181.86H88.5898V182.514H88.6703V181.86Z" fill="#CFE2FD"/>
<path d="M88.5905 181.86H88.5117V182.514H88.5905V181.86Z" fill="#D0E2FD"/>
<path d="M88.5063 181.86H88.4258V182.514H88.5063V181.86Z" fill="#D1E3FD"/>
<path d="M88.4262 181.86H88.3457V182.514H88.4262V181.86Z" fill="#D2E3FD"/>
<path d="M88.3461 181.86H88.2656V182.514H88.3461V181.86Z" fill="#D3E4FD"/>
<path d="M88.2602 181.86H88.1797V182.514H88.2602V181.86Z" fill="#D4E4FD"/>
<path d="M88.1803 181.86H88.1016V182.514H88.1803V181.86Z" fill="#D5E5FD"/>
<path d="M88.102 181.86H88.0215V182.514H88.102V181.86Z" fill="#D6E5FD"/>
<path d="M88.0219 181.86H87.9432V182.514H88.0219V181.86ZM87.9362 181.86H87.8574V182.514H87.9362V181.86Z" fill="#D7E6FD"/>
<path d="M87.8559 181.86H87.7754V182.514H87.8559V181.86Z" fill="#D8E7FD"/>
<path d="M87.776 181.86H87.6973V182.514H87.776V181.86Z" fill="#D9E7FD"/>
</g>
<mask id="mask6_1_14656" style="mask-type:luminance" maskUnits="userSpaceOnUse" x="93" y="181" width="6" height="2">
<path d="M93.6034 181.863H97.7632C97.8749 181.86 97.9844 181.895 98.0736 181.963C98.1627 182.03 98.2261 182.126 98.2532 182.234L98.3039 182.518H93.5387L93.4477 182.03C93.4437 182.008 93.4448 181.986 93.4508 181.965C93.4569 181.944 93.4678 181.925 93.4827 181.909C93.4983 181.893 93.5167 181.881 93.5369 181.872C93.5578 181.865 93.5815 181.862 93.6034 181.863Z" fill="white"/>
</mask>
<g mask="url(#mask6_1_14656)">
<path d="M98.303 181.86H98.2225V182.514H98.3012L98.303 181.86ZM98.2172 181.86H98.1367V182.514H98.2172V181.86Z" fill="#A8CCFC"/>
<path d="M98.1373 181.86H98.0586V182.514H98.1373V181.86Z" fill="#A9CDFC"/>
<path d="M98.059 181.86H97.9785V182.514H98.059V181.86Z" fill="#AACDFC"/>
<path d="M97.9772 181.86H97.8984V182.514H97.9772V181.86Z" fill="#ABCEFC"/>
<path d="M97.8934 181.86H97.8129V182.514H97.8934V181.86ZM97.8129 181.86H97.7324V182.514H97.8129V181.86Z" fill="#ACCEFC"/>
<path d="M97.7352 181.86H97.6547V182.514H97.7335L97.7352 181.86ZM97.6547 181.86H97.5742V182.514H97.6547V181.86Z" fill="#ADCFFC"/>
<path d="M97.569 181.86H97.4902V182.514H97.569V181.86Z" fill="#AED0FC"/>
<path d="M97.4887 181.86H97.4082V182.514H97.4887V181.86Z" fill="#AFD0FC"/>
<path d="M97.4088 181.86H97.3301V182.514H97.4088V181.86Z" fill="#B0D1FC"/>
<path d="M97.3305 181.86H97.25V182.514H97.3305V181.86Z" fill="#B1D1FC"/>
<path d="M97.2452 181.86H97.1647V182.514H97.2452V181.86ZM97.1647 181.86H97.0859V182.514H97.1647V181.86Z" fill="#B2D2FC"/>
<path d="M97.0844 181.86H97.0039V182.514H97.0844V181.86Z" fill="#B3D2FC"/>
<path d="M97.0045 181.86H96.9258V182.514H97.0045V181.86Z" fill="#B4D3FC"/>
<path d="M96.9262 181.86H96.8457V182.514H96.9262V181.86Z" fill="#B4D3FC"/>
<path d="M96.8403 181.86H96.7598V182.514H96.8403V181.86Z" fill="#B5D4FC"/>
<path d="M96.7604 181.86H96.6816V182.514H96.7604V181.86Z" fill="#B6D4FC"/>
<path d="M96.6801 181.86H96.5996V182.514H96.6801V181.86Z" fill="#B7D5FC"/>
<path d="M96.6002 181.86H96.5215V182.514H96.6002V181.86Z" fill="#B8D5FC"/>
<path d="M96.5165 181.86H96.436V182.514H96.5147L96.5165 181.86ZM96.436 181.86H96.3555V182.514H96.436V181.86Z" fill="#B9D6FC"/>
<path d="M96.3561 181.86H96.2773V182.514H96.3578L96.3561 181.86Z" fill="#BAD7FD"/>
<path d="M96.2758 181.86H96.1953V182.514H96.2758V181.86Z" fill="#BBD7FD"/>
<path d="M96.1901 181.86H96.1113V182.514H96.1901V181.86Z" fill="#BCD7FD"/>
<path d="M96.11 181.86H96.0312V182.514H96.1118L96.11 181.86Z" fill="#BDD8FD"/>
<path d="M96.0319 181.86H95.9531V182.514H96.0319V181.86Z" fill="#BED8FD"/>
<path d="M95.9535 181.86H95.873V182.514H95.9535V181.86Z" fill="#BFD9FD"/>
<path d="M95.8717 181.86H95.793V182.514H95.8717V181.86Z" fill="#C0D9FD"/>
<path d="M95.788 181.86H95.7074V182.514H95.788V181.86ZM95.7074 181.86H95.627V182.514H95.7074V181.86Z" fill="#C1DAFD"/>
<path d="M95.6278 181.86H95.5508V182.514H95.6295L95.6278 181.86Z" fill="#C2DBFD"/>
<path d="M95.5492 181.86H95.4688V182.514H95.5492V181.86Z" fill="#C3DBFD"/>
<path d="M95.4635 181.86H95.3848V182.514H95.4635V181.86Z" fill="#C4DCFD"/>
<path d="M95.3832 181.86H95.3027V182.514H95.3815L95.3832 181.86Z" fill="#C5DCFD"/>
<path d="M95.3055 181.86H95.225V182.514H95.3038L95.3055 181.86ZM95.2233 181.86H95.1445V182.514H95.2233V181.86Z" fill="#C6DDFD"/>
<path d="M95.1391 181.86H95.0586V182.514H95.1391V181.86Z" fill="#C7DEFD"/>
<path d="M95.061 181.86H94.9805V182.514H95.0592L95.061 181.86Z" fill="#C8DEFD"/>
<path d="M94.9789 181.86H94.8984V182.514H94.9772L94.9789 181.86Z" fill="#C9DEFD"/>
<path d="M94.8991 181.86H94.8203V182.514H94.8991V181.86Z" fill="#CADFFD"/>
<path d="M94.8207 181.86H94.7402V182.514H94.8207V181.86Z" fill="#CBDFFD"/>
<path d="M94.7354 181.86H94.6549V182.514H94.7354V181.86ZM94.6549 181.86H94.5762V182.514H94.6549V181.86Z" fill="#CCE0FD"/>
<path d="M94.5746 181.86H94.4941V182.514H94.5746V181.86Z" fill="#CDE1FD"/>
<path d="M94.4948 181.86H94.416V182.514H94.4948V181.86Z" fill="#CEE1FD"/>
<path d="M94.4106 181.86H94.3301V182.514H94.4106V181.86Z" fill="#CFE2FD"/>
<path d="M94.3305 181.86H94.25V182.514H94.3305V181.86Z" fill="#D0E2FD"/>
<path d="M94.2524 181.86H94.1719V182.514H94.2524V181.86Z" fill="#D1E3FD"/>
<path d="M94.1723 181.86H94.0918V182.514H94.1723V181.86Z" fill="#D2E3FD"/>
<path d="M94.0866 181.86H94.0078V182.514H94.0866V181.86Z" fill="#D3E4FD"/>
<path d="M94.0063 181.86H93.9258V182.514H94.0063V181.86Z" fill="#D4E4FD"/>
<path d="M93.9264 181.86H93.8477V182.514H93.9264V181.86Z" fill="#D5E5FD"/>
<path d="M93.8481 181.86H93.7676V182.514H93.8481V181.86Z" fill="#D6E5FD"/>
<path d="M93.768 181.86H93.6893V182.514H93.768V181.86ZM93.6823 181.86H93.6035V182.514H93.6823V181.86Z" fill="#D7E6FD"/>
<path d="M93.602 181.86H93.5215V182.514H93.602V181.86Z" fill="#D8E7FD"/>
<path d="M93.5221 181.86H93.4434V182.514H93.5221V181.86Z" fill="#D9E7FD"/>
</g>
<mask id="mask7_1_14656" style="mask-type:luminance" maskUnits="userSpaceOnUse" x="100" y="181" width="4" height="2">
<path d="M100.375 181.863H102.548C102.659 181.86 102.768 181.896 102.855 181.963C102.943 182.031 103.005 182.127 103.031 182.234L103.078 182.518H100.296L100.215 182.028C100.214 182.006 100.216 181.984 100.222 181.963C100.239 181.923 100.27 181.891 100.31 181.872C100.331 181.865 100.353 181.862 100.375 181.863Z" fill="white"/>
</mask>
<g mask="url(#mask7_1_14656)">
<path d="M103.073 181.856H103.028V182.511H103.073V181.856ZM103.028 181.856H102.982V182.511H103.028V181.856Z" fill="#A8CCFC"/>
<path d="M102.975 181.856H102.93V182.511H102.975V181.856Z" fill="#A9CDFC"/>
<path d="M102.93 181.856H102.885V182.511H102.93V181.856Z" fill="#AACDFC"/>
<path d="M102.885 181.856H102.84V182.511H102.885V181.856Z" fill="#ABCEFC"/>
<path d="M102.835 181.856H102.79V182.511H102.835V181.856ZM102.79 181.856H102.744V182.511H102.79V181.856Z" fill="#ACCEFC"/>
<path d="M102.737 181.856H102.692V182.511H102.737V181.856ZM102.692 181.856H102.646V182.511H102.692V181.856Z" fill="#ADCFFC"/>
<path d="M102.647 181.856H102.602V182.511H102.647V181.856Z" fill="#AED0FC"/>
<path d="M102.596 181.856H102.551V182.511H102.596V181.856Z" fill="#AFD0FC"/>
<path d="M102.551 181.856H102.506V182.511H102.551V181.856Z" fill="#B0D1FC"/>
<path d="M102.5 181.856H102.453V182.511H102.499L102.5 181.856Z" fill="#B1D1FC"/>
<path d="M102.452 181.856H102.406V182.511H102.452V181.856Z" fill="#B2D2FC"/>
<path d="M102.407 181.856H102.361V182.511H102.407V181.856Z" fill="#B2D2FC"/>
<path d="M102.356 181.856H102.311V182.511H102.356V181.856Z" fill="#B3D2FC"/>
<path d="M102.312 181.856H102.266V182.511H102.312V181.856ZM102.266 181.856H102.221V182.511H102.266V181.856Z" fill="#B4D3FC"/>
<path d="M102.215 181.856H102.17V182.511H102.215V181.856Z" fill="#B5D4FC"/>
<path d="M102.167 181.856H102.123V182.511H102.169L102.167 181.856Z" fill="#B6D4FC"/>
<path d="M102.118 181.856H102.07V182.511H102.116L102.118 181.856Z" fill="#B7D5FC"/>
<path d="M102.071 181.856H102.027V182.511H102.073L102.071 181.856Z" fill="#B8D5FC"/>
<path d="M102.028 181.856H101.98V182.511H102.026L102.028 181.856ZM101.975 181.856H101.93V182.511H101.975V181.856Z" fill="#B9D6FC"/>
<path d="M101.93 181.856H101.885V182.511H101.93V181.856Z" fill="#BAD7FD"/>
<path d="M101.879 181.856H101.834V182.511H101.879V181.856Z" fill="#BBD7FD"/>
<path d="M101.833 181.856H101.787V182.511H101.833V181.856Z" fill="#BCD7FD"/>
<path d="M101.788 181.856H101.742V182.511H101.788V181.856Z" fill="#BDD8FD"/>
<path d="M101.735 181.856H101.689V182.511H101.735V181.856Z" fill="#BED8FD"/>
<path d="M101.692 181.856H101.646V182.511H101.692V181.856Z" fill="#BFD9FD"/>
<path d="M101.639 181.856H101.594V182.511H101.639V181.856Z" fill="#C0D9FD"/>
<path d="M101.594 181.856H101.549V182.511H101.594V181.856Z" fill="#C1DAFD"/>
<path d="M101.547 181.856H101.502V182.511H101.547V181.856Z" fill="#C1DAFD"/>
<path d="M101.497 181.856H101.451V182.511H101.497V181.856Z" fill="#C2DBFD"/>
<path d="M101.452 181.856H101.406V182.511H101.452V181.856Z" fill="#C3DBFD"/>
<path d="M101.401 181.856H101.355V182.511H101.401V181.856Z" fill="#C4DCFD"/>
<path d="M101.356 181.856H101.311V182.511H101.356V181.856Z" fill="#C5DCFD"/>
<path d="M101.311 181.856H101.265V182.511H101.311V181.856ZM101.258 181.856H101.213V182.511H101.258V181.856Z" fill="#C6DDFD"/>
<path d="M101.212 181.856H101.166V182.511H101.212V181.856Z" fill="#C7DEFD"/>
<path d="M101.161 181.856H101.115V182.511H101.161V181.856Z" fill="#C8DEFD"/>
<path d="M101.118 181.856H101.07V182.511H101.116L101.118 181.856Z" fill="#C9DEFD"/>
<path d="M101.071 181.856H101.025V182.511H101.071V181.856Z" fill="#CADFFD"/>
<path d="M101.02 181.856H100.975V182.511H101.02V181.856Z" fill="#CBDFFD"/>
<path d="M100.973 181.856H100.928V182.511H100.973V181.856ZM100.922 181.856H100.877V182.511H100.922V181.856Z" fill="#CCE0FD"/>
<path d="M100.878 181.856H100.832V182.511H100.878V181.856Z" fill="#CDE1FD"/>
<path d="M100.833 181.856H100.787V182.511H100.833V181.856Z" fill="#CEE1FD"/>
<path d="M100.78 181.856H100.734V182.511H100.78V181.856Z" fill="#CFE2FD"/>
<path d="M100.735 181.856H100.689V182.511H100.735V181.856Z" fill="#D0E2FD"/>
<path d="M100.688 181.856H100.643V182.511H100.688V181.856Z" fill="#D1E3FD"/>
<path d="M100.637 181.856H100.592V182.511H100.637V181.856Z" fill="#D2E3FD"/>
<path d="M100.592 181.856H100.547V182.511H100.592V181.856Z" fill="#D3E4FD"/>
<path d="M100.54 181.856H100.496V182.511H100.542L100.54 181.856Z" fill="#D4E4FD"/>
<path d="M100.497 181.856H100.451V182.511H100.497V181.856Z" fill="#D5E5FD"/>
<path d="M100.45 181.856H100.404V182.511H100.45V181.856Z" fill="#D6E5FD"/>
<path d="M100.399 181.856H100.354V182.511H100.399V181.856ZM100.352 181.856H100.307V182.511H100.352V181.856Z" fill="#D7E6FD"/>
<path d="M100.301 181.856H100.256V182.511H100.301V181.856Z" fill="#D8E7FD"/>
<path d="M100.256 181.856H100.211V182.511H100.256V181.856Z" fill="#D9E7FD"/>
</g>
<mask id="mask8_1_14656" style="mask-type:luminance" maskUnits="userSpaceOnUse" x="103" y="181" width="4" height="2">
<path d="M103.76 181.863H105.933C106.043 181.86 106.152 181.894 106.239 181.962C106.326 182.029 106.387 182.125 106.411 182.233L106.451 182.518H103.658L103.583 182.028C103.581 182.004 103.583 181.981 103.59 181.958C103.599 181.936 103.612 181.917 103.628 181.9C103.645 181.883 103.666 181.871 103.689 181.865C103.712 181.858 103.737 181.858 103.76 181.863Z" fill="white"/>
</mask>
<g mask="url(#mask8_1_14656)">
<path d="M106.456 181.856H106.41V182.511H106.456V181.856ZM106.405 181.856H106.359V182.511H106.405V181.856Z" fill="#A8CCFC"/>
<path d="M106.36 181.856H106.314V182.511H106.36V181.856Z" fill="#A9CDFC"/>
<path d="M106.309 181.856H106.264V182.511H106.309V181.856Z" fill="#AACDFC"/>
<path d="M106.262 181.856H106.217V182.511H106.262V181.856Z" fill="#ABCEFC"/>
<path d="M106.217 181.856H106.172V182.511H106.217V181.856ZM106.165 181.856H106.119V182.511H106.165V181.856Z" fill="#ACCEFC"/>
<path d="M106.12 181.856H106.075V182.511H106.122L106.12 181.856ZM106.075 181.856H106.029V182.511H106.075V181.856Z" fill="#ADCFFC"/>
<path d="M106.024 181.856H105.979V182.511H106.024V181.856Z" fill="#AED0FC"/>
<path d="M105.979 181.856H105.932V182.511H105.977L105.979 181.856Z" fill="#AFD0FC"/>
<path d="M105.926 181.856H105.881V182.511H105.926V181.856Z" fill="#B0D1FC"/>
<path d="M105.881 181.856H105.836V182.511H105.881V181.856Z" fill="#B1D1FC"/>
<path d="M105.836 181.856H105.791V182.511H105.836V181.856ZM105.786 181.856H105.74V182.511H105.786V181.856Z" fill="#B2D2FC"/>
<path d="M105.739 181.856H105.693V182.511H105.739V181.856Z" fill="#B3D2FC"/>
<path d="M105.694 181.856H105.648V182.511H105.694V181.856ZM105.641 181.856H105.596V182.511H105.641V181.856Z" fill="#B4D3FC"/>
<path d="M105.596 181.856H105.551V182.511H105.596V181.856Z" fill="#B5D4FC"/>
<path d="M105.546 181.856H105.5V182.511H105.546V181.856Z" fill="#B6D4FC"/>
<path d="M105.501 181.856H105.455V182.511H105.501V181.856Z" fill="#B7D5FC"/>
<path d="M105.454 181.856H105.408V182.511H105.454V181.856Z" fill="#B8D5FC"/>
<path d="M105.402 181.856H105.358V182.511H105.403L105.402 181.856ZM105.358 181.856H105.312V182.511H105.358V181.856Z" fill="#B9D6FC"/>
<path d="M105.313 181.856H105.268V182.511H105.313V181.856Z" fill="#BAD7FD"/>
<path d="M105.262 181.856H105.217V182.511H105.262V181.856Z" fill="#BBD7FD"/>
<path d="M105.215 181.856H105.17V182.511H105.215V181.856Z" fill="#BCD7FD"/>
<path d="M105.165 181.856H105.119V182.511H105.165V181.856Z" fill="#BDD8FD"/>
<path d="M105.118 181.856H105.072V182.511H105.118V181.856Z" fill="#BED8FD"/>
<path d="M105.073 181.856H105.027V182.511H105.073V181.856Z" fill="#BFD9FD"/>
<path d="M105.022 181.856H104.977V182.511H105.022V181.856Z" fill="#C0D9FD"/>
<path d="M104.977 181.856H104.932V182.511H104.977V181.856Z" fill="#C1DAFD"/>
<path d="M104.93 181.856H104.887V182.511H104.932L104.93 181.856Z" fill="#C1DAFD"/>
<path d="M104.881 181.856H104.836V182.511H104.881V181.856Z" fill="#C2DBFD"/>
<path d="M104.835 181.856H104.789V182.511H104.835V181.856Z" fill="#C3DBFD"/>
<path d="M104.782 181.856H104.736V182.511H104.782V181.856Z" fill="#C4DCFD"/>
<path d="M104.737 181.856H104.691V182.511H104.737V181.856Z" fill="#C5DCFD"/>
<path d="M104.692 181.856H104.646V182.511H104.692V181.856ZM104.641 181.856H104.596V182.511H104.641V181.856Z" fill="#C6DDFD"/>
<path d="M104.596 181.856H104.549V182.511H104.594L104.596 181.856Z" fill="#C7DEFD"/>
<path d="M104.546 181.856H104.5V182.511H104.546V181.856Z" fill="#C8DEFD"/>
<path d="M104.499 181.856H104.453V182.511H104.499V181.856Z" fill="#C9DEFD"/>
<path d="M104.454 181.856H104.408V182.511H104.454V181.856Z" fill="#CADFFD"/>
<path d="M104.403 181.856H104.357V182.511H104.403V181.856Z" fill="#CBDFFD"/>
<path d="M104.358 181.856H104.311V182.511H104.356L104.358 181.856Z" fill="#CCE0FD"/>
<path d="M104.311 181.856H104.266V182.511H104.311V181.856Z" fill="#CCE0FD"/>
<path d="M104.258 181.856H104.213V182.511H104.258V181.856Z" fill="#CDE1FD"/>
<path d="M104.213 181.856H104.168V182.511H104.213V181.856Z" fill="#CEE1FD"/>
<path d="M104.163 181.856H104.117V182.511H104.163V181.856Z" fill="#CFE2FD"/>
<path d="M104.118 181.856H104.072V182.511H104.118V181.856Z" fill="#D0E2FD"/>
<path d="M104.073 181.856H104.027V182.511H104.073V181.856Z" fill="#D1E3FD"/>
<path d="M104.02 181.856H103.977V182.511H104.022L104.02 181.856Z" fill="#D2E3FD"/>
<path d="M103.975 181.856H103.93V182.511H103.975V181.856Z" fill="#D3E4FD"/>
<path d="M103.93 181.856H103.883V182.511H103.93V181.856Z" fill="#D4E4FD"/>
<path d="M103.879 181.856H103.832V182.511H103.878L103.879 181.856Z" fill="#D5E5FD"/>
<path d="M103.833 181.856H103.787V182.511H103.833V181.856Z" fill="#D6E5FD"/>
<path d="M103.782 181.856H103.737V182.511H103.782V181.856ZM103.737 181.856H103.691V182.511H103.737V181.856Z" fill="#D7E6FD"/>
<path d="M103.69 181.856H103.645V182.511H103.69V181.856Z" fill="#D8E7FD"/>
<path d="M103.639 181.856H103.594V182.511H103.639V181.856Z" fill="#D9E7FD"/>
<path d="M103.594 181.856H103.582V182.511H103.594V181.856Z" fill="#D9E7FD"/>
</g>
<mask id="mask9_1_14656" style="mask-type:luminance" maskUnits="userSpaceOnUse" x="106" y="181" width="4" height="2">
<path d="M106.952 181.863H109.131C109.24 181.861 109.347 181.896 109.433 181.963C109.52 182.031 109.58 182.126 109.604 182.233L109.639 182.518H106.856L106.786 182.028C106.784 182.006 106.786 181.984 106.794 181.963C106.801 181.943 106.814 181.924 106.83 181.909C106.847 181.893 106.866 181.88 106.888 181.872C106.908 181.865 106.93 181.862 106.952 181.863Z" fill="white"/>
</mask>
<g mask="url(#mask9_1_14656)">
<path d="M109.639 181.856H109.594V182.511H109.639V181.856ZM109.587 181.856H109.541V182.511H109.587V181.856Z" fill="#A8CCFC"/>
<path d="M109.54 181.856H109.494V182.511H109.54V181.856Z" fill="#A9CDFC"/>
<path d="M109.496 181.856H109.449V182.511H109.495L109.496 181.856Z" fill="#AACDFC"/>
<path d="M109.446 181.856H109.398V182.511H109.444L109.446 181.856Z" fill="#ABCEFC"/>
<path d="M109.399 181.856H109.354V182.511H109.399V181.856Z" fill="#ACCEFC"/>
<path d="M109.354 181.856H109.309V182.511H109.354V181.856Z" fill="#ACCEFC"/>
<path d="M109.303 181.856H109.258V182.511H109.303V181.856Z" fill="#ADCFFC"/>
<path d="M109.256 181.856H109.211V182.511H109.256V181.856Z" fill="#ADCFFC"/>
<path d="M109.212 181.856H109.166V182.511H109.212V181.856Z" fill="#AED0FC"/>
<path d="M109.161 181.856H109.115V182.511H109.161V181.856Z" fill="#AFD0FC"/>
<path d="M109.114 181.856H109.068V182.511H109.114V181.856Z" fill="#B0D1FC"/>
<path d="M109.069 181.856H109.023V182.511H109.069V181.856Z" fill="#B1D1FC"/>
<path d="M109.016 181.856H108.971V182.511H109.016V181.856Z" fill="#B2D2FC"/>
<path d="M108.973 181.856H108.926V182.511H108.971L108.973 181.856Z" fill="#B2D2FC"/>
<path d="M108.926 181.856H108.881V182.511H108.926V181.856Z" fill="#B3D2FC"/>
<path d="M108.876 181.856H108.83V182.511H108.876V181.856Z" fill="#B4D3FC"/>
<path d="M108.831 181.856H108.785V182.511H108.831V181.856Z" fill="#B4D3FC"/>
<path d="M108.78 181.856H108.734V182.511H108.78V181.856Z" fill="#B5D4FC"/>
<path d="M108.733 181.856H108.688V182.511H108.733V181.856Z" fill="#B6D4FC"/>
<path d="M108.688 181.856H108.643V182.511H108.688V181.856Z" fill="#B7D5FC"/>
<path d="M108.637 181.856H108.59V182.511H108.635L108.637 181.856Z" fill="#B8D5FC"/>
<path d="M108.59 181.856H108.545V182.511H108.59V181.856Z" fill="#B9D6FC"/>
<path d="M108.544 181.856H108.5V182.511H108.546L108.544 181.856Z" fill="#B9D6FC"/>
<path d="M108.495 181.856H108.449V182.511H108.495V181.856Z" fill="#BAD7FD"/>
<path d="M108.448 181.856H108.402V182.511H108.448V181.856Z" fill="#BBD7FD"/>
<path d="M108.403 181.856H108.357V182.511H108.403V181.856Z" fill="#BCD7FD"/>
<path d="M108.352 181.856H108.307V182.511H108.352V181.856Z" fill="#BDD8FD"/>
<path d="M108.307 181.856H108.262V182.511H108.307V181.856Z" fill="#BED8FD"/>
<path d="M108.26 181.856H108.215V182.511H108.26V181.856Z" fill="#BFD9FD"/>
<path d="M108.21 181.856H108.164V182.511H108.21V181.856Z" fill="#C0D9FD"/>
<path d="M108.164 181.856H108.119V182.511H108.164V181.856ZM108.112 181.856H108.066V182.511H108.112V181.856Z" fill="#C1DAFD"/>
<path d="M108.067 181.856H108.021V182.511H108.067V181.856Z" fill="#C2DBFD"/>
<path d="M108.022 181.856H107.977V182.511H108.022V181.856Z" fill="#C3DBFD"/>
<path d="M107.971 181.856H107.926V182.511H107.971V181.856Z" fill="#C4DCFD"/>
<path d="M107.924 181.856H107.879V182.511H107.924V181.856Z" fill="#C5DCFD"/>
<path d="M107.879 181.856H107.834V182.511H107.879V181.856ZM107.829 181.856H107.783V182.511H107.829V181.856Z" fill="#C6DDFD"/>
<path d="M107.784 181.856H107.738V182.511H107.784V181.856Z" fill="#C7DEFD"/>
<path d="M107.739 181.856H107.693V182.511H107.739V181.856Z" fill="#C8DEFD"/>
<path d="M107.686 181.856H107.641V182.511H107.686V181.856Z" fill="#C9DEFD"/>
<path d="M107.639 181.856H107.594V182.511H107.639V181.856Z" fill="#CADFFD"/>
<path d="M107.594 181.856H107.549V182.511H107.594V181.856Z" fill="#CBDFFD"/>
<path d="M107.544 181.856H107.499V182.511H107.544V181.856ZM107.499 181.856H107.453V182.511H107.499V181.856Z" fill="#CCE0FD"/>
<path d="M107.448 181.856H107.402V182.511H107.448V181.856Z" fill="#CDE1FD"/>
<path d="M107.401 181.856H107.355V182.511H107.401V181.856Z" fill="#CEE1FD"/>
<path d="M107.356 181.856H107.311V182.511H107.356V181.856Z" fill="#CFE2FD"/>
<path d="M107.305 181.856H107.26V182.511H107.305V181.856Z" fill="#D0E2FD"/>
<path d="M107.259 181.856H107.215V182.511H107.26L107.259 181.856Z" fill="#D1E3FD"/>
<path d="M107.215 181.856H107.17V182.511H107.215V181.856Z" fill="#D2E3FD"/>
<path d="M107.163 181.856H107.117V182.511H107.163V181.856Z" fill="#D3E4FD"/>
<path d="M107.118 181.856H107.07V182.511H107.116L107.118 181.856Z" fill="#D4E4FD"/>
<path d="M107.071 181.856H107.025V182.511H107.071V181.856Z" fill="#D5E5FD"/>
<path d="M107.02 181.856H106.975V182.511H107.02V181.856Z" fill="#D6E5FD"/>
<path d="M106.976 181.856H106.93V182.511H106.976V181.856ZM106.93 181.856H106.885V182.511H106.93V181.856Z" fill="#D7E6FD"/>
<path d="M106.879 181.856H106.834V182.511H106.879V181.856Z" fill="#D8E7FD"/>
<path d="M106.833 181.856H106.787V182.511H106.833V181.856Z" fill="#D9E7FD"/>
<path d="M106.786 181.856H106.775V182.511H106.788L106.786 181.856Z" fill="#D9E7FD"/>
</g>
<path d="M124.798 143.647H61.068C60.8878 143.634 60.7069 143.66 60.5374 143.722C60.368 143.785 60.2139 143.883 60.0856 144.01C59.9573 144.137 59.8577 144.291 59.7935 144.459C59.7293 144.628 59.702 144.809 59.7135 144.989L65.4535 182.21H119.273L126.147 145.222C126.178 145.027 126.167 144.828 126.113 144.638C126.06 144.449 125.966 144.273 125.838 144.123C125.709 143.973 125.55 143.853 125.371 143.771C125.192 143.688 124.997 143.646 124.799 143.647" fill="#3851A2"/>
<path d="M65.7212 183.666C65.7787 183.806 65.8763 183.926 66.0017 184.011C66.1272 184.096 66.2749 184.142 66.4265 184.144H118.806C118.839 184.147 118.872 184.144 118.903 184.133C118.935 184.123 118.964 184.106 118.988 184.083C119.012 184.061 119.031 184.033 119.044 184.002C119.056 183.972 119.062 183.939 119.061 183.906L119.271 182.198H65.4395L65.7212 183.666Z" fill="#E4E4E4"/>
<path d="M65.5332 183.729C65.6051 183.911 65.7296 184.067 65.8908 184.177C66.052 184.288 66.2426 184.347 66.438 184.349H118.815C118.883 184.351 118.949 184.339 119.012 184.314C119.074 184.289 119.13 184.25 119.176 184.202C119.247 184.122 119.283 184.017 119.277 183.911L119.522 181.993H65.185L65.5332 183.729ZM119.022 182.431L118.833 183.899L118.787 183.934H66.4275C66.3238 183.932 66.2225 183.903 66.1341 183.849C66.0457 183.794 65.9736 183.717 65.9252 183.626L65.6872 182.408L119.022 182.431ZM122.277 143.381H63.5645V143.831H122.277V143.381ZM174.74 65.4745H174.359L173.251 59.3915C177.883 45.5928 177.775 30.7125 169.467 34.1565C169.216 34.2662 168.973 34.3931 168.739 34.5363L165.112 14.49L164.902 14.119H164.475L168.242 34.8775C167.454 35.515 166.781 36.2848 166.256 37.1525C166.095 37.3995 165.944 37.6523 165.801 37.9103C163.241 42.5548 162.086 50.3388 161.818 57.2968C159.001 50.9303 154.643 44.653 149.867 41.5293L153.709 16.0878L153.14 16.2645L149.344 41.1828L148.747 40.8468V40.8065H148.611C147.75 40.3392 146.832 39.9834 145.881 39.7478C145.693 39.6976 145.503 39.6578 145.31 39.6288C142.834 39.179 140.354 39.795 138.004 41.8425C137.996 41.8296 137.984 41.8198 137.969 41.8145L137.782 42.0368C137.048 42.6618 136.459 43.439 136.055 44.3144C135.651 45.1898 135.443 46.1425 135.444 47.1065C135.444 50.3615 137.623 54.0015 140.678 57.4735L140.503 57.946C140.751 58.0323 141.031 58.1199 141.343 58.2085C141.663 58.5603 141.992 58.8963 142.323 59.2375C142.491 59.4125 142.66 59.5834 142.831 59.7503C143.858 60.7655 144.918 61.746 146.01 62.6903L145.583 65.4623H145.442C144.774 65.4637 144.135 65.7298 143.663 66.2022C143.192 66.6747 142.927 67.3148 142.927 67.9823V71.1865C142.927 71.854 143.192 72.4941 143.663 72.9666C144.135 73.439 144.774 73.7051 145.442 73.7065H145.566L150.317 81.8685H169.87L174.616 73.7485H174.74C175.408 73.7471 176.049 73.4812 176.521 73.009C176.994 72.5368 177.26 71.8966 177.262 71.2285V67.9945C177.26 67.3267 176.994 66.6868 176.522 66.2147C176.05 65.7425 175.408 65.4764 174.74 65.4745ZM146.199 65.4745L146.553 63.147C147.511 63.9625 148.469 64.7384 149.426 65.4745H146.199ZM170.857 65.4745C171.595 63.8698 172.267 62.202 172.869 60.5063L173.769 65.4745H170.857Z" fill="#260D19"/>
<path d="M145.333 39.6392L142.351 59.248L141.924 62.0585L142.493 62.1495L142.858 59.7607L145.903 39.7582L149.276 17.6312C149.065 17.7106 148.857 17.7958 148.651 17.8867L145.333 39.6392Z" fill="#260D19"/>
<path d="M134.152 38.3914C124.142 47.5754 149.094 65.0667 155.086 67.9577H161.255C162.837 56.3832 146.5 27.0899 134.152 38.3914Z" fill="#508A82"/>
<path d="M134.339 38.1675L133.963 38.612C134.112 38.738 148.883 51.3292 158.027 68.0645L158.54 67.7862C149.338 50.988 134.486 38.2935 134.337 38.1692" fill="#260D19"/>
<path d="M136.871 54.299C140.018 55.4715 150.346 56.574 150.784 56.602L150.84 56.0332C150.738 56.0332 140.147 54.8957 137.076 53.7582L136.871 54.299ZM142.748 46.5255L143.283 46.7407C144.758 43.0762 145.042 37.4045 145.054 37.1647L144.484 37.1367C144.466 37.1927 144.181 42.952 142.748 46.5255Z" fill="#260D19"/>
<path d="M161.255 67.956C161.885 63.2625 159.547 55.6657 155.792 49.0315C154.427 50.2705 152.635 60.4345 161.255 67.956Z" fill="black"/>
<path d="M165.806 30.5042C156.936 34.1914 157.146 64.2932 159.359 67.9577H163.845C173.466 53.2927 176.767 25.9524 165.806 30.5042Z" fill="#508A82"/>
<path d="M160.969 67.8947L161.539 68.0137C163.245 59.8937 167.941 33.7085 167.986 33.4407L167.388 33.3497C167.388 33.6052 162.687 59.78 160.969 67.8947Z" fill="#260D19"/>
<path d="M167.871 53.8737L163.081 58.6827L163.492 59.0922L168.282 54.2814L167.871 53.8737ZM158.946 43.7009L158.613 44.1769L164.079 47.9744L164.409 47.4984L158.946 43.7009Z" fill="#260D19"/>
<path d="M171.082 61.8204H141.811C141.143 61.8204 140.502 62.0859 140.029 62.5585C139.557 63.0311 139.291 63.6721 139.291 64.3404V67.5447C139.291 68.9377 140.42 70.0647 141.811 70.0647H171.082C171.75 70.0647 172.391 69.7992 172.863 69.3266C173.336 68.854 173.602 68.213 173.602 67.5447V64.3422C173.602 63.6738 173.336 63.0329 172.863 62.5603C172.391 62.0877 171.75 61.8204 171.082 61.8204Z" fill="white"/>
<path d="M146.67 78.211H166.223L171.013 69.965H141.879L146.67 78.211Z" fill="white"/>
<path d="M161.442 69.5449H143.473V70.1259H161.442V69.5449ZM166.251 37.1682L162.086 14.3727L161.515 14.4409L165.773 37.9014L170.375 63.2467L170.944 63.1434L166.251 37.1682Z" fill="#260D19"/>
<path d="M173.289 266.025H177.864V262.848H249.482V266.025H253.966V198.937H173.289V266.025Z" fill="#6581D4"/>
<path d="M177.58 237.508H249.68V222.794H177.58V237.508ZM178.149 223.373H249.101V236.927H178.159L178.149 223.373Z" fill="#260D19"/>
<path d="M173.289 205.746H245.76L253.84 198.947H173.289V205.746Z" fill="#3851A2"/>
<path d="M258.621 194.222H168.646V199.026H258.621V194.222Z" fill="white"/>
<path d="M171.852 194.513H258.324V198.735H168.789V199.315H258.905V193.932H171.85L171.852 194.513Z" fill="#260D19"/>
<path d="M212.768 228.074C212.421 228.073 212.078 228.141 211.757 228.273C211.437 228.405 211.145 228.6 210.9 228.844C210.654 229.089 210.459 229.38 210.326 229.7C210.193 230.02 210.124 230.364 210.123 230.71C210.122 231.057 210.19 231.401 210.322 231.721C210.455 232.042 210.649 232.333 210.893 232.579C211.138 232.825 211.429 233.02 211.749 233.153C212.069 233.286 212.413 233.355 212.759 233.355C213.46 233.357 214.132 233.08 214.628 232.585C215.124 232.091 215.403 231.419 215.405 230.719C215.406 230.019 215.129 229.347 214.634 228.851C214.14 228.354 213.469 228.075 212.768 228.074Z" fill="#3851A2"/>
<path d="M213.634 228.314C213.362 228.313 213.093 228.372 212.847 228.488C212.601 228.604 212.383 228.773 212.211 228.984C212.038 229.194 211.915 229.44 211.849 229.704C211.783 229.968 211.777 230.243 211.831 230.51C211.901 230.867 212.076 231.195 212.333 231.452C212.59 231.709 212.918 231.884 213.275 231.954C213.661 232.028 214.061 231.977 214.416 231.808C214.771 231.639 215.063 231.36 215.248 231.013C215.433 230.667 215.502 230.269 215.446 229.88C215.389 229.491 215.209 229.13 214.932 228.851C214.588 228.507 214.121 228.314 213.634 228.314Z" fill="#E29A57"/>
<path d="M213.634 228.023C213.319 228.022 213.007 228.091 212.722 228.225C212.437 228.36 212.186 228.556 211.986 228.799C211.786 229.042 211.643 229.327 211.567 229.633C211.491 229.939 211.484 230.257 211.546 230.566C211.629 230.978 211.832 231.356 212.13 231.653C212.428 231.95 212.806 232.152 213.219 232.234C213.631 232.316 214.058 232.274 214.447 232.114C214.835 231.954 215.168 231.683 215.403 231.334C215.618 231.014 215.741 230.641 215.761 230.256C215.78 229.871 215.694 229.488 215.513 229.147C215.331 228.807 215.06 228.523 214.729 228.325C214.398 228.127 214.019 228.023 213.634 228.023ZM213.634 231.698C213.328 231.697 213.029 231.606 212.775 231.436C212.521 231.266 212.322 231.025 212.204 230.743C212.077 230.436 212.052 230.097 212.133 229.775C212.213 229.453 212.396 229.166 212.652 228.955C212.909 228.745 213.226 228.622 213.558 228.606C213.889 228.59 214.217 228.681 214.493 228.865C214.769 229.049 214.978 229.318 215.09 229.63C215.202 229.943 215.21 230.283 215.114 230.6C215.017 230.918 214.822 231.196 214.555 231.394C214.288 231.591 213.965 231.698 213.634 231.698ZM177.58 218.542H249.68V203.828H177.58V218.542ZM178.149 204.407H249.101V217.963H178.159L178.149 204.407Z" fill="#260D19"/>
<path d="M212.767 209.107C212.246 209.109 211.738 209.264 211.305 209.554C210.872 209.843 210.535 210.254 210.335 210.735C210.185 211.095 210.117 211.483 210.136 211.872C210.155 212.262 210.26 212.642 210.443 212.985C210.627 213.329 210.885 213.628 211.198 213.859C211.511 214.091 211.872 214.251 212.254 214.326C212.765 214.426 213.294 214.374 213.775 214.174C214.256 213.975 214.668 213.638 214.958 213.206C215.299 212.7 215.452 212.091 215.393 211.484C215.333 210.877 215.063 210.309 214.631 209.879C214.386 209.634 214.096 209.44 213.776 209.307C213.456 209.175 213.113 209.107 212.767 209.107Z" fill="#3851A2"/>
<path d="M213.634 209.347C213.271 209.349 212.916 209.458 212.614 209.659C212.312 209.861 212.076 210.147 211.935 210.481C211.784 210.845 211.754 211.248 211.85 211.631C211.946 212.013 212.162 212.354 212.466 212.605C212.771 212.855 213.148 213 213.541 213.02C213.935 213.039 214.325 212.932 214.652 212.713C214.98 212.494 215.229 212.176 215.362 211.805C215.495 211.434 215.505 211.03 215.391 210.653C215.277 210.275 215.045 209.945 214.728 209.71C214.412 209.475 214.028 209.348 213.634 209.347Z" fill="#E29A57"/>
<path d="M213.634 209.057C213.319 209.056 213.007 209.125 212.722 209.259C212.437 209.393 212.186 209.589 211.986 209.832C211.786 210.076 211.643 210.361 211.567 210.666C211.491 210.972 211.484 211.291 211.546 211.599C211.629 212.011 211.832 212.389 212.13 212.686C212.428 212.983 212.806 213.185 213.219 213.267C213.631 213.349 214.058 213.308 214.447 213.148C214.835 212.988 215.168 212.716 215.403 212.368C215.676 211.958 215.799 211.466 215.751 210.976C215.703 210.486 215.488 210.027 215.14 209.678C214.74 209.28 214.198 209.056 213.634 209.057ZM213.634 212.732C213.327 212.733 213.028 212.642 212.773 212.472C212.518 212.302 212.32 212.06 212.204 211.776C212.077 211.47 212.052 211.13 212.133 210.808C212.213 210.486 212.396 210.199 212.652 209.989C212.909 209.778 213.226 209.656 213.558 209.64C213.889 209.623 214.217 209.714 214.493 209.898C214.769 210.083 214.978 210.351 215.09 210.664C215.202 210.976 215.21 211.316 215.114 211.634C215.017 211.951 214.822 212.229 214.555 212.427C214.288 212.625 213.965 212.732 213.634 212.732ZM177.58 256.457H249.68V241.743H177.58V256.457ZM178.149 242.322H249.101V255.871H178.159L178.149 242.322Z" fill="#260D19"/>
<path d="M212.768 247.016C212.378 247.017 211.993 247.104 211.641 247.271C211.288 247.438 210.977 247.68 210.729 247.981C210.481 248.282 210.303 248.634 210.207 249.012C210.111 249.39 210.099 249.785 210.173 250.168C210.274 250.681 210.525 251.152 210.895 251.522C211.264 251.892 211.734 252.144 212.247 252.247C212.759 252.349 213.29 252.296 213.772 252.097C214.255 251.897 214.667 251.559 214.958 251.125C215.297 250.617 215.45 250.008 215.39 249.4C215.331 248.792 215.063 248.224 214.632 247.791C214.388 247.545 214.098 247.35 213.778 247.217C213.458 247.084 213.115 247.016 212.768 247.016Z" fill="#3851A2"/>
<path d="M213.634 247.256C213.27 247.256 212.913 247.364 212.609 247.565C212.306 247.767 212.068 248.054 211.926 248.39C211.785 248.726 211.747 249.097 211.818 249.455C211.888 249.813 212.064 250.143 212.322 250.4C212.579 250.66 212.907 250.838 213.266 250.91C213.624 250.983 213.995 250.947 214.333 250.808C214.671 250.668 214.96 250.431 215.163 250.127C215.365 249.823 215.473 249.466 215.472 249.1C215.471 248.612 215.278 248.143 214.935 247.797C214.765 247.625 214.562 247.488 214.339 247.395C214.116 247.302 213.876 247.255 213.634 247.256Z" fill="#E29A57"/>
<path d="M213.634 246.972C213.319 246.971 213.007 247.04 212.722 247.174C212.437 247.309 212.186 247.504 211.986 247.748C211.786 247.991 211.643 248.276 211.567 248.582C211.491 248.887 211.484 249.206 211.546 249.515C211.629 249.927 211.832 250.305 212.13 250.602C212.428 250.899 212.806 251.101 213.219 251.183C213.631 251.265 214.058 251.223 214.447 251.063C214.835 250.903 215.168 250.632 215.403 250.283C215.676 249.873 215.799 249.382 215.751 248.891C215.704 248.401 215.488 247.943 215.14 247.593C214.74 247.195 214.198 246.972 213.634 246.972ZM213.634 250.647C213.327 250.648 213.028 250.558 212.773 250.388C212.518 250.217 212.32 249.975 212.204 249.692C212.116 249.48 212.076 249.252 212.087 249.024C212.098 248.795 212.159 248.572 212.267 248.37C212.375 248.168 212.526 247.993 212.71 247.857C212.894 247.721 213.106 247.627 213.331 247.583C213.555 247.537 213.787 247.541 214.01 247.596C214.233 247.651 214.44 247.755 214.617 247.901C214.795 248.046 214.937 248.229 215.035 248.437C215.132 248.644 215.182 248.871 215.181 249.1C215.182 249.304 215.142 249.505 215.065 249.693C214.987 249.881 214.873 250.052 214.73 250.196C214.586 250.34 214.415 250.454 214.227 250.531C214.039 250.609 213.837 250.648 213.634 250.647Z" fill="#260D19"/>
<path d="M243.836 85.715H180.436C179.874 85.7145 179.318 85.8247 178.8 86.0393C178.281 86.2539 177.81 86.5687 177.413 86.9656C177.016 87.3625 176.701 87.8338 176.486 88.3525C176.272 88.8712 176.162 89.4271 176.162 89.9885V169.785C176.162 170.346 176.272 170.902 176.486 171.421C176.701 171.94 177.016 172.411 177.413 172.808C177.81 173.205 178.281 173.52 178.8 173.734C179.318 173.949 179.874 174.059 180.436 174.058H243.836C244.398 174.059 244.954 173.949 245.472 173.734C245.991 173.52 246.462 173.205 246.859 172.808C247.256 172.411 247.571 171.94 247.785 171.421C248 170.902 248.11 170.346 248.11 169.785V89.9885C248.11 89.4273 248 88.8716 247.785 88.3531C247.57 87.8346 247.255 87.3635 246.859 86.9668C246.462 86.57 245.99 86.2554 245.472 86.0409C244.953 85.8264 244.398 85.7145 243.836 85.715Z" fill="white"/>
<path d="M245.065 80.2987H203.954V80.6172H245.065C247.084 80.6191 249.019 81.4216 250.447 82.8488C251.874 84.276 252.677 86.2112 252.679 88.2297V171.537C252.678 173.555 251.875 175.491 250.447 176.918C249.02 178.345 247.084 179.148 245.065 179.149H179.213C177.195 179.146 175.262 178.342 173.836 176.915C172.41 175.488 171.608 173.554 171.605 171.537V98.1312H171.285V171.535C171.294 173.635 172.132 175.647 173.617 177.132C175.101 178.618 177.113 179.457 179.213 179.468H245.065C247.166 179.46 249.179 178.622 250.665 177.136C252.151 175.651 252.99 173.638 252.998 171.537V88.2297C252.99 86.1285 252.151 84.1158 250.665 82.6302C249.179 81.1446 247.166 80.3065 245.065 80.2987Z" fill="#260D19"/>
<path d="M218.471 156.656H218.504L218.868 156.691L218.908 156.219L218.521 156.184L218.471 156.656Z" fill="#260D19"/>
<path d="M241.855 131.968C241.855 131.88 241.855 131.791 241.822 131.705V131.625C241.084 127.136 238.945 122.995 235.713 119.795C232.48 116.594 228.319 114.497 223.823 113.803L222.173 113.474L219.021 134.635L197.768 134.874V135.112C197.768 135.471 197.768 135.795 197.797 136.092C198.217 145.486 205.455 155.565 218.475 156.646C218.748 156.674 219.044 156.702 219.704 156.737H220.54C221.584 156.737 222.624 156.663 223.659 156.515C228.617 155.743 233.156 153.282 236.509 149.549C239.862 145.816 241.823 141.04 242.06 136.028V134.89C242.049 133.992 241.985 133.095 241.868 132.204C241.882 132.124 241.878 132.042 241.855 131.964M241.595 136.008C241.388 140.921 239.48 145.61 236.196 149.27C232.912 152.931 228.458 155.335 223.596 156.072C222.315 156.254 221.02 156.32 219.727 156.271C219.1 156.243 218.794 156.209 218.521 156.181H218.372C205.723 155.043 198.69 145.243 198.28 136.082V135.361L219.459 135.121L222.59 114.027L223.767 114.261C224.177 114.322 224.478 114.375 224.791 114.436C228.976 115.298 232.8 117.409 235.759 120.491C238.718 123.573 240.671 127.48 241.362 131.696V131.775C241.362 131.856 241.362 131.934 241.395 132.031C241.43 132.129 241.423 132.202 241.435 132.293C241.552 133.166 241.614 134.042 241.623 134.922C241.617 135.286 241.612 135.657 241.595 136.008Z" fill="#260D19"/>
<path d="M218.471 156.656H218.504L218.868 156.691L218.908 156.219L218.521 156.184L218.471 156.656Z" fill="#260D19"/>
<path d="M198.686 106.872C195.507 108.804 192.884 111.528 191.075 114.779C189.267 118.03 188.335 121.695 188.37 125.415V125.688L210.994 125.45L199.738 106.353L198.686 106.872Z" fill="#C93D2F"/>
<path d="M225.869 110.04L224.451 109.76L221.322 130.9L200.104 131.145C200.104 131.471 200.104 131.793 200.137 132.113C200.569 141.787 207.249 154.305 225.743 152.325C235.758 151.26 243.502 142.315 243.951 132.043V130.94C243.908 125.877 242.065 120.995 238.752 117.166C235.44 113.337 230.873 110.811 225.869 110.04Z" fill="#508A82"/>
<path d="M220.655 104.982C218.623 104.685 216.558 104.685 214.526 104.982C211.726 105.387 209.038 106.356 206.623 107.828L218.726 128.147L222.067 105.275L220.655 104.982ZM219.022 141.531C219.137 144.516 218.763 147.499 217.912 150.362C216.063 156.371 212.302 159.889 206.732 160.816L206.81 161.282C212.501 160.337 216.484 156.609 218.362 150.498C219.228 147.58 219.612 144.54 219.5 141.498L219.022 141.531Z" fill="#260D19"/>
<path d="M208.308 159.115L207.926 158.835L206.266 161.124L208.667 162.62L208.917 162.218L206.943 160.993L208.308 159.115ZM207.898 102.389C207.729 100.943 208.28 99.4875 209.543 98.0525L209.19 97.741C207.83 99.2775 207.239 100.865 207.431 102.447C207.744 105.08 210.095 106.743 210.191 106.811L210.466 106.424C210.466 106.424 208.189 104.814 207.898 102.389Z" fill="#260D19"/>
<path d="M206.915 97.909L206.976 98.3745L209.276 98.056L209.43 100.373L209.902 100.343L209.713 97.5222L206.915 97.909ZM188.393 133.224L188.853 133.145C187.716 126.373 192.722 124.353 192.939 124.267L192.768 123.83C192.712 123.853 187.203 126.066 188.393 133.224Z" fill="#260D19"/>
<path d="M188.62 133L186.828 131.526L186.525 131.89L188.711 133.689L190.344 131.372L189.962 131.099L188.62 133ZM228.763 96.4757H216.468V96.9132H228.763V96.4757ZM224.712 97.6325H216.468V98.07H224.712V97.6325ZM227.262 98.7875H216.468V99.225H227.262V98.7875ZM213.845 95.97C213.476 95.9708 213.116 96.0806 212.809 96.2854C212.502 96.4903 212.263 96.7811 212.121 97.1215C212.015 97.3763 211.968 97.6513 211.981 97.9268C211.995 98.2022 212.07 98.4712 212.2 98.7144C212.33 98.9576 212.512 99.169 212.733 99.3332C212.955 99.4975 213.21 99.6106 213.481 99.6644C213.751 99.7182 214.03 99.7114 214.298 99.6444C214.565 99.5774 214.815 99.452 215.028 99.277C215.241 99.1021 215.413 98.8821 215.531 98.6328C215.649 98.3836 215.71 98.1112 215.71 97.8355C215.712 97.4661 215.604 97.1045 215.399 96.7971C215.194 96.4897 214.902 96.2504 214.56 96.11C214.333 96.0181 214.09 95.9706 213.845 95.97ZM223.592 164.4H211.295V164.838H223.592V164.4ZM219.541 165.55H211.295V165.987H219.541V165.55ZM222.089 166.705H211.295V167.142H222.089V166.705Z" fill="#260D19"/>
<path d="M208.672 163.895C208.303 163.896 207.942 164.006 207.636 164.212C207.33 164.417 207.091 164.709 206.95 165.05C206.809 165.391 206.773 165.766 206.844 166.127C206.916 166.489 207.093 166.822 207.354 167.083C207.55 167.277 207.787 167.426 208.047 167.518C208.307 167.61 208.584 167.643 208.859 167.616C209.133 167.588 209.398 167.5 209.635 167.358C209.872 167.216 210.074 167.024 210.227 166.794C210.396 166.538 210.499 166.245 210.529 165.939C210.558 165.634 210.513 165.326 210.397 165.043C210.255 164.703 210.015 164.412 209.708 164.208C209.401 164.004 209.04 163.895 208.672 163.895Z" fill="white"/>
<path d="M190.725 138.082H178.428V138.519H190.725V138.082ZM190.725 136.927H182.479V137.364H190.725V136.927ZM190.73 135.772H179.936V136.209H190.73V135.772Z" fill="#260D19"/>
<path d="M193.735 135.205C193.366 135.206 193.006 135.316 192.699 135.52C192.393 135.725 192.153 136.016 192.011 136.356C191.858 136.726 191.828 137.135 191.925 137.524C192.022 137.912 192.242 138.258 192.551 138.512C192.86 138.766 193.243 138.914 193.643 138.934C194.043 138.953 194.438 138.844 194.771 138.622C195.104 138.399 195.356 138.076 195.491 137.699C195.626 137.322 195.636 136.912 195.52 136.529C195.404 136.146 195.168 135.811 194.846 135.572C194.525 135.334 194.135 135.205 193.735 135.205Z" fill="#C93D2F"/>
</g>
</g>
</g>
</g>
<defs>
<clipPath id="clip0_1_14656">
<rect width="280" height="280" fill="white"/>
</clipPath>
<clipPath id="clip1_1_14656">
<rect width="280" height="280" fill="white"/>
</clipPath>
</defs>
</svg>
